<svg xmlns="http://www.w3.org/2000/svg" xmlns:xlink="http://www.w3.org/1999/xlink" viewBox="0 0 400 153"><defs><clipPath id="a"><rect x="26" y="44.20126" width="350" height="80.9042" style="fill:none"/></clipPath><clipPath id="b"><rect x="26" y="44.20094" width="350" height="80.90452" style="fill:none"/></clipPath></defs><title>Artboard 1</title><g style="clip-path:url(#a)"><g style="clip-path:url(#b)"><path d="M88.77276,103.05688l4.779-27.071a4.73625,4.73625,0,0,0-.2575-3.277,2.49967,2.49967,0,0,0-2.38722-1.237,7.04112,7.04112,0,0,0-2.94351.68274,20.97309,20.97309,0,0,0-3.11235,1.7866l-2.81462,1.78767-5.20268,29.37188H65.57621L75.38358,49.7663l.24414-1.04053-2.80124.10166-14.58637-.083-8.18649,52.781,7.506.85234-.6008,2.80952L43.144,105.01405l-13.38916.17326.1699-2.80952,7.42018-.85234,8.1863-52.781-9.12339.083L28.901,62.44821h-2.9013l2.39179-17.02544,24.04956.16951,24.99017-.16951,7.07951-1.19242,2.72788,2.21427-4.4348,25.11381-.76719,1.53143,14.3289-9.87314q10.91712,0,8.87137,10.81211l-4.6923,26.55786,7.24942-4.93545,1.27669,1.61731-12.45119,9.1932Z" style="fill:#fff6e6"/><path d="M111.52313,105.10079l.5964-3.40842,5.71589-32.26062L110.92584,71.728l-.76614-1.87065,16.54269-6.55684,2.56151,2.38281-2.04742,12.00626L125.852,82.79543l12.02577-18.72927h7.07948l-2.30506,11.57977H135.063a6.38364,6.38364,0,0,0-1.49217,1.31995q-.98429,1.06549-2.04758,2.29629-1.06741,1.237-2.08946,2.38367c-.684.76582-1.19368,1.35044-1.53419,1.7458l-1.70689,1.95717-3.41191,19.752H111.52313Z" style="fill:#fff6e6"/><path d="M145.79586,71.72857l-.76719-1.87065L161.57224,63.3l3.07121,2.72654-6.0557,34.56045,7.24939-4.93609,1.28128,1.618-12.45227,9.1932-7.84667-3.40551,5.96915-33.62535Zm11.9415-25.6236,3.411-.59621,6.39637.59621v5.53144L165.75394,56.064l-3.24111.76583-6.90958-.76583.25659-5.10666Z" style="fill:#fff6e6"/><path d="M240.337,44.23035l2.81459,2.21406-4.35249,24.7748-1.01922,2.12667L251.508,63.2165a12.44725,12.44725,0,0,1,7.20822,4.97194q2.68621,3.77791,2.68674,10.15257a24.89417,24.89417,0,0,1-1.10786,7.39222,26.78674,26.78674,0,0,1-3.15792,6.7097,25.47633,25.47633,0,0,1-5.03189,5.65006,27.54731,27.54731,0,0,1-6.65229,4.12228l-8.95438,4.07762a26.72419,26.72419,0,0,1-7.548-1.08518,23.89844,23.89844,0,0,1-6.86406-3.25577l9.29434-52.27238L223.62,51.55376l-.684-2.13022Zm-2.304,31.32884L234.0247,97.95107a14.11119,14.11119,0,0,0,3.87954,2.12679,12.38,12.38,0,0,0,4.39452.93532,11.17617,11.17617,0,0,0,3.41083-3.31813,18.91968,18.91968,0,0,0,2.17635-4.42758,28.978,28.978,0,0,0,1.1928-4.89508,31.61528,31.61528,0,0,0,.38168-4.81135q0-9.27441-4.60455-12.25885Z" style="fill:#fff6e6"/><path d="M283.81283,98.79934c.735-.33912,1.58888-.72374,2.55709-1.1467q1.44731-.63878,2.89867-1.40561c.96839-.50969,1.91885-1.02185,2.85946-1.53154q1.40537-.76841,2.51506-1.44759l1.27758,1.70093q-2.55481,1.70442-5.757,3.661-3.19593,1.95852-6.43843,3.74828l-6.822,4.001a15.95123,15.95123,0,0,1-5.24753-1.61817,15.46756,15.46756,0,0,1-4.432-3.36365,16.05681,16.05681,0,0,1-3.07032-4.93619,17.03825,17.03825,0,0,1-1.15252-6.4293,24.59331,24.59331,0,0,1,4.04945-13.7072q4.0501-6.209,12.41091-9.44944l9.80739-3.6581a10.70907,10.70907,0,0,1,6.10054,3.19039,9.28637,9.28637,0,0,1,2.34256,6.59891,20.48114,20.48114,0,0,1-.2531,3.27713,17.96012,17.96012,0,0,1-1.11049,3.70276L274.76892,86.371v.42563a15.11125,15.11125,0,0,0,3.02934,7.57621,13.80715,13.80715,0,0,0,6.01457,4.42651M281.7654,68.0665a14.33155,14.33155,0,0,0-5.24753,6.21417,21.98718,21.98718,0,0,0-1.91974,8.85419v.51324a3.47927,3.47927,0,0,0,.08779.67919l10.14717-3.82783a11.80819,11.80819,0,0,0,.725-2.9379c.08687-.88.12873-1.801.12873-2.76766a8.19788,8.19788,0,0,0-1.15235-4.46858,4.78131,4.78131,0,0,0-2.769-2.25882" style="fill:#fff6e6"/><path d="M331.84336,100.67385l7.33345-4.93619,1.28045,1.61795L328.089,106.46229l-7.92966-3.23516,1.1935-6.64088.8539-2.12668-13.56259,11.91877a15.82353,15.82353,0,0,1-7.03834-5.27885q-2.68514-3.57422-2.686-10.04554a22.26477,22.26477,0,0,1,4.69227-14.04642,34.90071,34.90071,0,0,1,12.539-9.87593l8.09965-3.91445a27.12374,27.12374,0,0,1,6.653.93532,34.621,34.621,0,0,1,6.90872,2.55242Zm-21.0686-14.72914q0,7.66386,4.095,11.66338l7.24939-5.61882,3.66852-20.93978a16.41406,16.41406,0,0,0-3.92514-1.66261,15.07873,15.07873,0,0,0-4.17729-.63808,18.7039,18.7039,0,0,0-5.16066,7.576,26.81918,26.81918,0,0,0-1.74984,9.61991" style="fill:#fff6e6"/><path d="M342.566,105.10079l6.05412-35.05415-6.65119,1.6814-.76631-1.87065,16.54355-6.55684,2.56063,2.38281-2.0474,12.00626-1.3645,5.10581L368.9207,64.06616h7.07946l-2.305,11.57977h-7.5899a6.43276,6.43276,0,0,0-1.49236,1.31995q-.983,1.06549-2.0474,2.29629-1.06773,1.237-2.08878,2.38367c-.68311.76582-1.19436,1.35044-1.53417,1.7458l-1.7078,1.95717-3.411,19.752Z" style="fill:#fff6e6"/><path d="M219.14494,69.00526l.59729-3.23516h-9.12777l2.2173-12.51487h-2.55711l-10.064,8.17489-.85387,4.34H186.7346l1.0238-6.13119a37.224,37.224,0,0,1,1.06581-3.87227,7.10307,7.10307,0,0,1,1.832-3.0211h6.18989l4.32839.07224,7.591-6.65688.33082-1.95975-3.64705.02931H195.34846l-10.57455,6.38475a19.02168,19.02168,0,0,0-5.62833,5.27885,19.24691,19.24691,0,0,0-3.242,7.32362l-.3433,2.29629H170.5282l-2.04391,1.78767-.3433,1.617h6.822l-6.73618,38.73554a40.86549,40.86549,0,0,1-1.065,4.17306,10.18631,10.18631,0,0,1-1.74879,3.40573h-9.981l-.65973,3.61979-1.13108,6.25249h5.54513l10.57458-7.40552a33.11313,33.11313,0,0,0,6.7397-5.95815,14.97189,14.97189,0,0,0,3.411-7.15036l6.2258-35.67258h12.622l-6.0557,34.30818,8.01728,3.23505,15.52258-8.93707-.9371-1.70469-10.831,4.94071,5.62918-31.75555Z" style="fill:#fff6e6"/></g></g></svg>