<svg xmlns="http://www.w3.org/2000/svg" xmlns:xlink="http://www.w3.org/1999/xlink" viewBox="0 0 350 350"><defs><clipPath id="a"><path d="M-674.09781,211.45327a4.84791,4.84791,0,0,0-4.85006,4.84854V240.5536a4.84791,4.84791,0,0,0,4.85006,4.84854,4.84791,4.84791,0,0,0,4.85005-4.84854V216.30181a4.85347,4.85347,0,0,0-1.41845-3.4299A4.85539,4.85539,0,0,0-674.09781,211.45327Z" style="fill:none;clip-rule:evenodd"/></clipPath><clipPath id="b"><path d="M-460.69727,259.95383h-174.602V226.00192a38.80612,38.80612,0,0,0-38.80044-38.80044,38.80612,38.80612,0,0,0-38.80044,38.80044v33.95191h-19.40022v-130.953H-703.2a4.85373,4.85373,0,0,0,3.4316-1.41864,4.85118,4.85118,0,0,0,1.41845-3.4299V95.05194h189.15368v67.90078c0,.07161.03676.12125.03676.19248a5.0473,5.0473,0,0,0,.32719,1.63879v.07162l14.55016,33.9519a4.85235,4.85235,0,0,0,4.462,2.93315,4.85253,4.85253,0,0,0,4.46205-2.93315l14.55017-33.9519V164.784a5.048,5.048,0,0,0,.32738-1.63879c0-.07123.03637-.13337.03637-.19248V95.05194h9.70012Zm-184.30211,24.25179A29.10735,29.10735,0,0,1-674.09971,313.306,29.10735,29.10735,0,0,1-703.2,284.20562V226.005a29.10735,29.10735,0,0,1,29.10033-29.10033A29.10735,29.10735,0,0,1-644.99938,226.005Zm-63.0492-182.29047v17.38858H-725.436Zm-6.86264-6.86321-17.38764,17.389v-17.389Zm215.41389-53.35212h19.40022v9.70011h-19.40022ZM-482.607,167.80126l-7.1902,16.78043-7.19021-16.78043Zm2.50991-9.70011h-19.40022V61.1h19.40022Zm24.25028-72.75235H-470.397V36.84824a4.84692,4.84692,0,0,0-1.41864-3.42989,4.84351,4.84351,0,0,0-3.43142-1.42168h-29.10033a4.8505,4.8505,0,0,0-4.85,4.85157V85.3488H-737.15157a4.84779,4.84779,0,0,0-4.85005,4.84854v174.602a4.85361,4.85361,0,0,0,1.41845,3.43293,4.85534,4.85534,0,0,0,3.4316,1.41865h24.25028v14.54865A38.80406,38.80406,0,0,0-674.10085,323a38.80419,38.80419,0,0,0,38.80045-38.80044V269.65091h179.45034a4.85536,4.85536,0,0,0,3.43161-1.41865A4.85365,4.85365,0,0,0-451,264.79933V90.19734a4.85124,4.85124,0,0,0-1.41845-3.4299,4.85379,4.85379,0,0,0-3.43161-1.41864Z" style="fill:none;clip-rule:evenodd"/></clipPath><clipPath id="c"><path d="M-475.24706,240.55057h-9.70011a4.84791,4.84791,0,0,0-4.85,4.84854,4.84856,4.84856,0,0,0,4.85,4.85157h9.70011a4.84856,4.84856,0,0,0,4.85006-4.85157A4.84791,4.84791,0,0,0-475.24706,240.55057Z" style="fill:none;clip-rule:evenodd"/></clipPath><clipPath id="d"><path d="M-504.34436,240.55057h-9.70011a4.84791,4.84791,0,0,0-4.85005,4.84854,4.84856,4.84856,0,0,0,4.85005,4.85157h9.70011a4.84856,4.84856,0,0,0,4.85006-4.85157A4.84791,4.84791,0,0,0-504.34436,240.55057Z" style="fill:none;clip-rule:evenodd"/></clipPath><clipPath id="e"><path d="M-544.23739,121.08234a4.86263,4.86263,0,0,0-6.82645-.69227l-50.13631,41.0201-45.409-40.86172h.01213a4.87459,4.87459,0,0,0-6.01407-.388l-63.049,43.649a4.80609,4.80609,0,0,0-2.08571,3.12905,4.84807,4.84807,0,0,0,.76388,3.68756,4.86582,4.86582,0,0,0,3.17679,2.02376,4.90026,4.90026,0,0,0,3.67392-.85975l59.89856-41.46684,45.651,41.07883h-.01213a4.853,4.853,0,0,0,6.30507.155l53.35213-43.649a4.82674,4.82674,0,0,0,1.77027-3.27152,4.89712,4.89712,0,0,0-1.067-3.55418Z" style="fill:none;clip-rule:evenodd"/></clipPath><clipPath id="f"><path d="M-578.06577,221.15338l15.52018-24.79515,15.52018,24.79515Zm19.6306-36.52205a5.02288,5.02288,0,0,0-4.12255-2.145,5.03932,5.03932,0,0,0-4.12254,2.145l-24.25028,38.80044a4.86242,4.86242,0,0,0-.12125,4.93531,4.84485,4.84485,0,0,0,4.25592,2.48641h48.50056a4.871,4.871,0,0,0,4.24379-2.49853,4.8678,4.8678,0,0,0-.13318-4.92319Z" style="fill:none;clip-rule:evenodd"/></clipPath><clipPath id="g"><path d="M-200.00056,76.0537a5.12263,5.12263,0,0,0,5.125-5.12336V55.55384a5.12264,5.12264,0,0,0-5.125-5.12337,5.12263,5.12263,0,0,0-5.125,5.12337v15.3765A5.12263,5.12263,0,0,0-200.00056,76.0537Z" style="fill:none;clip-rule:evenodd"/></clipPath><clipPath id="h"><path d="M-200.00056,287.20556a5.12332,5.12332,0,0,0-5.125,5.12657v15.3733a5.12536,5.12536,0,0,0,5.125,5.12657,5.12537,5.12537,0,0,0,5.125-5.12657v-15.3733A5.12332,5.12332,0,0,0-200.00056,287.20556Z" style="fill:none;clip-rule:evenodd"/></clipPath><clipPath id="i"><path d="M-41.125,143.70648h-15.3749a5.12339,5.12339,0,0,0-5.125,5.12657,5.1227,5.1227,0,0,0,5.125,5.12336H-41.125A5.12263,5.12263,0,0,0-36,148.833,5.12332,5.12332,0,0,0-41.125,143.70648Z" style="fill:none;clip-rule:evenodd"/></clipPath><clipPath id="j"><path d="M-343.49964,143.70648h-15.3749a5.12335,5.12335,0,0,0-5.125,5.12657,5.12267,5.12267,0,0,0,5.125,5.12336h15.3749a5.12264,5.12264,0,0,0,5.125-5.12336A5.12333,5.12333,0,0,0-343.49964,143.70648Z" style="fill:none;clip-rule:evenodd"/></clipPath><clipPath id="k"><path d="M-305.08781,50.9814a5.0959,5.0959,0,0,0,3.626,1.49906,5.11816,5.11816,0,0,0,3.626-1.49906,5.13454,5.13454,0,0,0,0-7.25183l-10.87775-10.86332a5.13082,5.13082,0,0,0-7.25162,0,5.13064,5.13064,0,0,0,0,7.24862Z" style="fill:none;clip-rule:evenodd"/></clipPath><clipPath id="l"><path d="M-305.08781,246.67828l-10.87775,10.86333a5.13454,5.13454,0,0,0,0,7.25183,5.09608,5.09608,0,0,0,3.626,1.49905,5.11811,5.11811,0,0,0,3.626-1.49905l10.87775-10.86333a5.13454,5.13454,0,0,0,0-7.25183,5.13679,5.13679,0,0,0-7.25173,0Z" style="fill:none;clip-rule:evenodd"/></clipPath><clipPath id="m"><path d="M-98.5246,52.48046a5.11816,5.11816,0,0,0,3.626-1.49906l10.87775-10.87614a5.135,5.135,0,0,0,0-7.25223,5.131,5.131,0,0,0-7.25173,0l-10.87765,10.87654a5.13454,5.13454,0,0,0,0,7.25183,5.09592,5.09592,0,0,0,3.626,1.49906Z" style="fill:none;clip-rule:evenodd"/></clipPath><clipPath id="n"><path d="M-58.97457,291.63666l-9.6989,8.89222a7.60364,7.60364,0,0,1-5.11215,2.05,5.79669,5.79669,0,0,1-4.26664-1.72847l-44.93245-49.66214,20.24372-18.22046,44.79142,49.508a5.46492,5.46492,0,0,1,1.4478,4.06073A7.43,7.43,0,0,1-58.97457,291.63666Zm-77.155-62.66394a102.46814,102.46814,0,0,0,12.15888-11.40425l10.63441,11.13559-12.38951,11.1452ZM-292.25,148.82984a92.35453,92.35453,0,0,1,92.24941-92.24941,92.35454,92.35454,0,0,1,92.24942,92.24941,92.35454,92.35454,0,0,1-92.24942,92.24941A92.35453,92.35453,0,0,1-292.25,148.82984ZM-98.96082,221.875a5.10173,5.10173,0,0,0-3.57447-1.67923,5.26765,5.26765,0,0,0-3.57456,1.24281l-11.33889-11.87671a101.99025,101.99025,0,0,0,19.94883-60.73207A102.503,102.503,0,0,0-199.99926,46.3305,102.503,102.503,0,0,0-302.4986,148.82984,102.503,102.503,0,0,0-199.99926,251.32919a101.9525,101.9525,0,0,0,55.46446-16.32462l11.18534,11.713-.89666.80678.064.06246a5.11923,5.11923,0,0,0,.15375,6.67807l48.43224,53.51628A15.92963,15.92963,0,0,0-73.783,312.8288a17.76329,17.76329,0,0,0,12.031-4.743l9.6989-8.88861A17.74289,17.74289,0,0,0-46.262,286.9333a15.686,15.686,0,0,0-4.15112-11.401Z" style="fill:none;clip-rule:evenodd"/></clipPath><clipPath id="o"><path d="M-200.00056,215.45282a66.703,66.703,0,0,1-66.623-66.623,66.70367,66.70367,0,0,1,66.623-66.623,66.70367,66.70367,0,0,1,66.623,66.623A66.70367,66.70367,0,0,1-200.00056,215.45282Zm0-143.49909a76.87157,76.87157,0,0,0-76.87611,76.87611A76.86945,76.86945,0,0,0-200.00056,225.706a76.86945,76.86945,0,0,0,76.87612-76.87611A76.86946,76.86946,0,0,0-200.00056,71.95373Z" style="fill:none;clip-rule:evenodd"/></clipPath><clipPath id="p"><path d="M-188.39531,153.18566l-16.10541-16.10481,29.89147-11.87671ZM-211.5986,144.474l16.10541,16.10481-29.90428,11.87671Zm45.57538-33.72148-48.40592,19.24385a5.1531,5.1531,0,0,0-2.70342,2.49922l-23.34423,47.37912a5.1305,5.1305,0,0,0,.83281,5.74,5.12009,5.12009,0,0,0,3.76665,1.6532,5.08838,5.08838,0,0,0,1.89624-.36075l48.40592-19.24385a5.14746,5.14746,0,0,0,2.70332-2.496l23.34422-47.37912a5.12882,5.12882,0,0,0-.83271-5.74,5.12634,5.12634,0,0,0-5.66328-1.29565Z" style="fill:none;clip-rule:evenodd"/></clipPath><clipPath id="q"><path d="M-988.46629,297.9279a87.45373,87.45373,0,0,1-9.28769,0,87.41881,87.41881,0,0,1-59.16763-32.14269,88.00289,88.00289,0,0,1-18.93867-64.79764l14.88067,1.60583a72.77329,72.77329,0,0,0,19.15208,57.14961,72.21437,72.21437,0,0,0,55.58491,22.90709,72.24921,72.24921,0,0,0,53.64593-27.1785,72.76608,72.76608,0,0,0,14.65585-58.48216,72.5679,72.5679,0,0,0-34.42988-49.40789A72.07232,72.07232,0,0,0-1012.137,141.341l-4.79191-14.23679a87.14406,87.14406,0,0,1,73.56163,7.19517,87.69463,87.69463,0,0,1,41.75986,61.21491,87.91347,87.91347,0,0,1-19.91616,71.439,87.24308,87.24308,0,0,1-67.33937,30.57752Z" style="fill:none;clip-rule:evenodd"/></clipPath><clipPath id="r"><path d="M-988.50376,328a119.13307,119.13307,0,0,1-83.29853-34.08531,115.16666,115.16666,0,0,1-34.53087-81.966,114.05618,114.05618,0,0,1,37.06529-84.44784l10.04764,10.76648a99.575,99.575,0,0,0-32.24733,73.6777,100.36258,100.36258,0,0,0,30.16213,71.58108,103.8315,103.8315,0,0,0,72.798,29.65305,103.84014,103.84014,0,0,0,72.80167-29.65305,100.374,100.374,0,0,0,30.15847-71.58108A100.37317,100.37317,0,0,0-915.70575,140.364a103.84653,103.84653,0,0,0-72.80167-29.65305,103.41832,103.41832,0,0,0-42.89042,9.183l-6.33011-13.432a119.87511,119.87511,0,0,1,101.90772,1.6433,116.38816,116.38816,0,0,1,62.61556,79.076,114.63821,114.63821,0,0,1-23.3787,97.54675,118.79235,118.79235,0,0,1-91.92771,43.26834Z" style="fill:none;clip-rule:evenodd"/></clipPath><clipPath id="s"><polygon points="-964.08 84.667 -979.055 84.667 -979.055 56.492 -964.08 56.492 -964.08 51.367 -1009 51.367 -1009 56.492 -994.025 56.492 -994.025 84.667 -1009 84.667 -1009 71.86 -1023.974 71.86 -1023.974 36 -949.102 36 -949.102 71.86 -964.077 71.86 -964.08 84.667" style="fill:none;clip-rule:evenodd"/></clipPath><clipPath id="t"><rect x="-888.93918" y="69.16049" width="14.44282" height="38.49953" transform="translate(-320.76465 -597.57385) rotate(-45)" style="fill:none"/></clipPath><clipPath id="u"><polygon points="-907.923 100.884 -885.465 80.923 -874.231 90.911 -896.688 110.872 -907.923 100.884" style="fill:none;clip-rule:evenodd"/></clipPath><clipPath id="v"><polygon points="-1050.183 178.256 -1064.734 178.256 -1064.734 136.751 -1106.333 136.751 -1106.333 122.103 -1050.179 122.103 -1050.183 178.256" style="fill:none;clip-rule:evenodd"/></clipPath><clipPath id="w"><polygon points="-997.313 245.641 -1031.461 212.993 -1020.586 202.694 -997.313 224.947 -952.389 182 -941.615 192.299 -997.313 245.641" style="fill:none;clip-rule:evenodd"/></clipPath><clipPath id="x"><path d="M246.65558,175.999h9.00633V202.9994h-9.00633ZM228.6431,166.9998h9.00633v35.9996H228.6431Zm-54.03919,35.9996a76.11116,76.11116,0,0,1-50.77365-19.39477l52.644-52.60581h74.52728a76.11515,76.11515,0,0,1-6.85549,27.50569,4.46307,4.46307,0,0,0-1.99289-.50669H224.14071a4.50106,4.50106,0,0,0-4.50394,4.4996v25.78475A76.78738,76.78738,0,0,1,174.60391,202.998Zm-72.05167-63a13.10665,13.10665,0,0,0-3.19863.42711,77.83618,77.83618,0,0,1-1.30531-13.9273c0-1.5074.15795-2.992.24761-4.49961h22.26881a4.49962,4.49962,0,0,0,4.50239-4.4996v-9.00059h13.51027a4.499,4.499,0,0,0,3.1856-7.68382l-16.69587-16.683V68.25808a76.38944,76.38944,0,0,1,45.033-18.0554v74.43049l-52.64422,52.60564c-.46116-.51816-.94527-1.012-1.39653-1.55292V153.501a13.51553,13.51553,0,0,0-13.50871-13.5002ZM44.01059,50.00059h72.05175v35.9996a4.497,4.497,0,0,0,1.31817,3.18282l10.32293,10.31581h-7.13733A4.50137,4.50137,0,0,0,116.06234,104v8.999H44.01059Zm206.92548,71.999H179.10786V50.22405A76.51521,76.51521,0,0,1,250.93607,121.99961Zm22.74128,63v17.9998H264.671V184.9996Zm4.50255,26.999a4.50013,4.50013,0,0,0,4.50377-4.4996V180.49861a4.501,4.501,0,0,0-4.50377-4.4996H264.671v-4.4996a4.5,4.5,0,0,0-4.50378-4.49961H249.9225A85.47488,85.47488,0,0,0,125.06711,56.86164V45.4996A4.50092,4.50092,0,0,0,120.56333,41H39.50525a4.501,4.501,0,0,0-4.50386,4.4996V117.5a4.50094,4.50094,0,0,0,4.50386,4.4996H89.16308c-.07837,1.49611-.12389,3.0035-.12389,4.49961a85.16708,85.16708,0,0,0,2.286,19.50719,13.40488,13.40488,0,0,0-2.286,7.4932v14.33148a13.34813,13.34813,0,0,0-4.504-.83129,13.50185,13.50185,0,0,0-12.99194,9.99,13.29438,13.29438,0,0,0-5.02054-.9908,13.50244,13.50244,0,0,0-12.99211,9.98983,13.32892,13.32892,0,0,0-5.02046-.98924A13.51573,13.51573,0,0,0,35,198.4998v55.316a12.09433,12.09433,0,0,0,3.56866,8.61623l13.51019,13.50019a3.13844,3.13844,0,0,1,.93381,2.25059V320h9.00772V278.18281a12.09365,12.09365,0,0,0-3.57015-8.6178L44.94152,256.06482a3.13829,3.13829,0,0,1-.93519-2.249v-55.316a4.50317,4.50317,0,0,1,9.00633,0v26.999h9.00615V189.4992a4.50386,4.50386,0,0,1,9.00772,0v35.9996h9.00633V180.5a4.50317,4.50317,0,0,1,9.00633,0v44.9988h9.00632V153.49961a4.50308,4.50308,0,0,1,9.00616,0V225.4988a4.50025,4.50025,0,0,0,1.31817,3.18421l13.50871,13.5002a4.51569,4.51569,0,0,0,3.18717,1.31521h22.51643a4.5003,4.5003,0,1,1,0,9.0006H132.75527a12.11729,12.11729,0,0,0-8.62475,3.5658L110.62181,269.565a12.09368,12.09368,0,0,0-3.57014,8.6178V320h9.00772V278.18281a3.15763,3.15763,0,0,1,.9338-2.25059l13.51028-13.4988a3.158,3.158,0,0,1,2.2518-.93381h14.82688a13.50011,13.50011,0,1,0,0-27.00022H126.93332L116.058,223.63258V188.813a85.33005,85.33005,0,0,0,103.5746,10.29322V207.499a4.49973,4.49973,0,0,0,4.50238,4.4996Z" style="fill:none;clip-rule:evenodd"/></clipPath><clipPath id="y"><rect x="-1406.97449" y="-1852.21429" width="2049.79592" height="3968.63265" style="fill:none"/></clipPath><clipPath id="z"><rect x="188.73469" y="103.63265" width="8.54082" height="8.54082" style="fill:none"/></clipPath><clipPath id="ab"><rect x="205.81633" y="103.63265" width="8.54082" height="8.54082" style="fill:none"/></clipPath><clipPath id="ad"><rect x="224.32143" y="103.63265" width="8.54082" height="8.54082" style="fill:none"/></clipPath><clipPath id="af"><rect x="188.73469" y="86.55102" width="8.54082" height="8.54082" style="fill:none"/></clipPath><clipPath id="ah"><rect x="205.81633" y="86.55102" width="8.54082" height="8.54082" style="fill:none"/></clipPath><clipPath id="aj"><rect x="53.5051" y="59.5051" width="54.09184" height="8.54082" style="fill:none"/></clipPath><clipPath id="al"><rect x="53.5051" y="78.0102" width="54.09184" height="8.54082" style="fill:none"/></clipPath><clipPath id="an"><rect x="53.5051" y="95.09184" width="54.09184" height="8.54082" style="fill:none"/></clipPath><clipPath id="ap"><path d="M304.98377,76.79021h-9.01485a4.53073,4.53073,0,0,0-3.18855,1.30827l-10.3344,10.256V81.26427a4.489,4.489,0,0,0-4.50673-4.47406H268.923V49.94794h36.06076ZM309.49188,41h-45.0756a4.49012,4.49012,0,0,0-4.50812,4.47389V81.26427a4.49012,4.49012,0,0,0,4.50812,4.47389h9.01484V99.15877a4.4705,4.4705,0,0,0,2.78282,4.138,4.55916,4.55916,0,0,0,4.91386-.97221l16.71151-16.5864h11.65257A4.49012,4.49012,0,0,0,314,81.26427V45.47389A4.48923,4.48923,0,0,0,309.49188,41Z" style="fill:none;clip-rule:evenodd"/></clipPath><clipPath id="ar"><rect x="276.9898" y="59.5051" width="18.5051" height="8.54082" style="fill:none"/></clipPath><clipPath id="at"><path d="M213.66539,236.29576a4.60991,4.60991,0,0,0-7.15731,0l-26.83949,36.00238a4.5,4.5,0,0,0,3.57866,7.20127H196.6663V320h8.94655V274.997a4.48433,4.48433,0,0,0-4.47267-4.4996H192.1938l17.89293-23.99829,17.89294,23.99829h-8.94638a4.48433,4.48433,0,0,0-4.47267,4.4996V320h8.94655V279.49941h13.41905a4.5,4.5,0,0,0,3.57866-7.20127Z" style="fill:none;clip-rule:evenodd"/></clipPath><clipPath id="av"><path d="M286.26233,236.29576a4.60991,4.60991,0,0,0-7.15731,0l-26.83949,36.00238a4.5,4.5,0,0,0,3.57866,7.20127h13.419V320h8.94656V274.997a4.48433,4.48433,0,0,0-4.47267-4.4996h-8.94638l17.89293-23.99829,17.89294,23.99829h-8.94638a4.48433,4.48433,0,0,0-4.47267,4.4996V320h8.94655V279.49941h13.41905a4.5,4.5,0,0,0,3.57866-7.20127Z" style="fill:none;clip-rule:evenodd"/></clipPath></defs><title>charts</title><g style="clip-path:url(#x)"><g style="clip-path:url(#y)"><rect x="27.88265" y="33.88265" width="261.91837" height="293.23469"/></g></g><g style="clip-path:url(#z)"><g style="clip-path:url(#y)"><rect x="181.61735" y="96.51531" width="22.77551" height="22.77551"/></g></g><g style="clip-path:url(#ab)"><g style="clip-path:url(#y)"><rect x="198.69898" y="96.51531" width="22.77551" height="22.77551"/></g></g><g style="clip-path:url(#ad)"><g style="clip-path:url(#y)"><rect x="217.20408" y="96.51531" width="22.77551" height="22.77551"/></g></g><g style="clip-path:url(#af)"><g style="clip-path:url(#y)"><rect x="181.61735" y="79.43367" width="22.77551" height="22.77551"/></g></g><g style="clip-path:url(#ah)"><g style="clip-path:url(#y)"><rect x="198.69898" y="79.43367" width="22.77551" height="22.77551"/></g></g><g style="clip-path:url(#aj)"><g style="clip-path:url(#y)"><rect x="46.38776" y="52.38776" width="68.32653" height="22.77551"/></g></g><g style="clip-path:url(#al)"><g style="clip-path:url(#y)"><rect x="46.38776" y="70.89286" width="68.32653" height="22.77551"/></g></g><g style="clip-path:url(#an)"><g style="clip-path:url(#y)"><rect x="46.38776" y="87.97449" width="68.32653" height="22.77551"/></g></g><g style="clip-path:url(#ap)"><g style="clip-path:url(#y)"><rect x="252.79082" y="33.88265" width="68.32653" height="76.86735"/></g></g><g style="clip-path:url(#ar)"><g style="clip-path:url(#y)"><rect x="269.87245" y="52.38776" width="32.7398" height="22.77551"/></g></g><g style="clip-path:url(#at)"><g style="clip-path:url(#y)"><rect x="171.65306" y="227.47449" width="76.86735" height="99.64286"/></g></g><g style="clip-path:url(#av)"><g style="clip-path:url(#y)"><rect x="244.25" y="227.47449" width="76.86735" height="99.64286"/></g></g></svg>