<svg xmlns="http://www.w3.org/2000/svg" xmlns:xlink="http://www.w3.org/1999/xlink" viewBox="0 0 350 350"><defs><clipPath id="a"><path d="M-1055.09781,211.45327a4.84791,4.84791,0,0,0-4.85006,4.84854V240.5536a4.84791,4.84791,0,0,0,4.85006,4.84854,4.84791,4.84791,0,0,0,4.85005-4.84854V216.30181a4.85347,4.85347,0,0,0-1.41845-3.4299A4.85539,4.85539,0,0,0-1055.09781,211.45327Z" style="fill:none;clip-rule:evenodd"/></clipPath><clipPath id="b"><path d="M-841.69727,259.95383h-174.602V226.00192a38.80612,38.80612,0,0,0-38.80044-38.80044,38.80612,38.80612,0,0,0-38.80044,38.80044v33.95191h-19.40022v-130.953H-1084.2a4.85373,4.85373,0,0,0,3.4316-1.41864,4.85118,4.85118,0,0,0,1.41845-3.4299V95.05194h189.15368v67.90078c0,.07161.03676.12125.03676.19248a5.0473,5.0473,0,0,0,.32719,1.63879v.07162l14.55016,33.9519a4.85235,4.85235,0,0,0,4.462,2.93315,4.85253,4.85253,0,0,0,4.462-2.93315l14.55017-33.9519V164.784a5.048,5.048,0,0,0,.32738-1.63879c0-.07123.03637-.13337.03637-.19248V95.05194h9.70012Zm-184.30211,24.25179a29.10735,29.10735,0,0,1-29.10033,29.10033A29.10735,29.10735,0,0,1-1084.2,284.20562V226.005a29.10735,29.10735,0,0,1,29.10033-29.10033,29.10735,29.10735,0,0,1,29.10033,29.10033Zm-63.0492-182.29047v17.38858H-1106.436Zm-6.86264-6.86321-17.38764,17.389v-17.389Zm215.41389-53.35212h19.40022v9.70011h-19.40022ZM-863.607,167.80126l-7.1902,16.78043-7.19021-16.78043Zm2.50991-9.70011h-19.40022V61.1h19.40022Zm24.25028-72.75235H-851.397V36.84824a4.84692,4.84692,0,0,0-1.41864-3.42989,4.84351,4.84351,0,0,0-3.43142-1.42168h-29.10033a4.8505,4.8505,0,0,0-4.85005,4.85157V85.3488h-227.95413a4.84779,4.84779,0,0,0-4.85005,4.84854v174.602a4.85361,4.85361,0,0,0,1.41845,3.43293,4.85534,4.85534,0,0,0,3.4316,1.41865h24.25028v14.54865A38.80406,38.80406,0,0,0-1055.10085,323a38.80419,38.80419,0,0,0,38.80045-38.80044V269.65091h179.45034a4.85536,4.85536,0,0,0,3.43161-1.41865A4.85365,4.85365,0,0,0-832,264.79933V90.19734a4.85124,4.85124,0,0,0-1.41845-3.4299,4.85379,4.85379,0,0,0-3.43161-1.41864Z" style="fill:none;clip-rule:evenodd"/></clipPath><clipPath id="c"><path d="M-856.24706,240.55057h-9.70011a4.84791,4.84791,0,0,0-4.85005,4.84854,4.84856,4.84856,0,0,0,4.85005,4.85157h9.70011a4.84856,4.84856,0,0,0,4.85006-4.85157A4.84791,4.84791,0,0,0-856.24706,240.55057Z" style="fill:none;clip-rule:evenodd"/></clipPath><clipPath id="d"><path d="M-885.34436,240.55057h-9.70011a4.84791,4.84791,0,0,0-4.85005,4.84854,4.84856,4.84856,0,0,0,4.85005,4.85157h9.70011a4.84856,4.84856,0,0,0,4.85006-4.85157A4.84791,4.84791,0,0,0-885.34436,240.55057Z" style="fill:none;clip-rule:evenodd"/></clipPath><clipPath id="e"><path d="M-925.23739,121.08234a4.86263,4.86263,0,0,0-6.82645-.69227l-50.13631,41.0201-45.409-40.86172h.01213a4.87459,4.87459,0,0,0-6.01407-.388l-63.049,43.649a4.80609,4.80609,0,0,0-2.08571,3.12905,4.84807,4.84807,0,0,0,.76388,3.68756,4.86582,4.86582,0,0,0,3.17679,2.02376,4.90026,4.90026,0,0,0,3.67392-.85975l59.89856-41.46684,45.651,41.07883h-.01213a4.853,4.853,0,0,0,6.30507.155l53.35213-43.649a4.82674,4.82674,0,0,0,1.77027-3.27152,4.89712,4.89712,0,0,0-1.067-3.55418Z" style="fill:none;clip-rule:evenodd"/></clipPath><clipPath id="f"><path d="M-959.06577,221.15338l15.52018-24.79515,15.52018,24.79515Zm19.6306-36.52205a5.02288,5.02288,0,0,0-4.12255-2.145,5.03932,5.03932,0,0,0-4.12254,2.145l-24.25028,38.80044a4.86242,4.86242,0,0,0-.12125,4.93531,4.84485,4.84485,0,0,0,4.25592,2.48641h48.50056a4.871,4.871,0,0,0,4.24379-2.49853,4.8678,4.8678,0,0,0-.13318-4.92319Z" style="fill:none;clip-rule:evenodd"/></clipPath><clipPath id="g"><path d="M-581.00056,76.0537a5.12263,5.12263,0,0,0,5.125-5.12336V55.55384a5.12264,5.12264,0,0,0-5.125-5.12337,5.12263,5.12263,0,0,0-5.125,5.12337v15.3765A5.12263,5.12263,0,0,0-581.00056,76.0537Z" style="fill:none;clip-rule:evenodd"/></clipPath><clipPath id="h"><path d="M-581.00056,287.20556a5.12332,5.12332,0,0,0-5.125,5.12657v15.3733a5.12536,5.12536,0,0,0,5.125,5.12657,5.12537,5.12537,0,0,0,5.125-5.12657v-15.3733A5.12332,5.12332,0,0,0-581.00056,287.20556Z" style="fill:none;clip-rule:evenodd"/></clipPath><clipPath id="i"><path d="M-422.125,143.70648h-15.3749a5.12339,5.12339,0,0,0-5.125,5.12657,5.1227,5.1227,0,0,0,5.125,5.12336h15.3749A5.12263,5.12263,0,0,0-417,148.833,5.12332,5.12332,0,0,0-422.125,143.70648Z" style="fill:none;clip-rule:evenodd"/></clipPath><clipPath id="j"><path d="M-724.49964,143.70648h-15.3749a5.12335,5.12335,0,0,0-5.125,5.12657,5.12267,5.12267,0,0,0,5.125,5.12336h15.3749a5.12264,5.12264,0,0,0,5.125-5.12336A5.12333,5.12333,0,0,0-724.49964,143.70648Z" style="fill:none;clip-rule:evenodd"/></clipPath><clipPath id="k"><path d="M-686.08781,50.9814a5.0959,5.0959,0,0,0,3.626,1.49906,5.11816,5.11816,0,0,0,3.626-1.49906,5.13454,5.13454,0,0,0,0-7.25183l-10.87775-10.86332a5.13082,5.13082,0,0,0-7.25162,0,5.13064,5.13064,0,0,0,0,7.24862Z" style="fill:none;clip-rule:evenodd"/></clipPath><clipPath id="l"><path d="M-686.08781,246.67828l-10.87775,10.86333a5.13454,5.13454,0,0,0,0,7.25183,5.09608,5.09608,0,0,0,3.626,1.49905,5.11811,5.11811,0,0,0,3.626-1.49905l10.87775-10.86333a5.13454,5.13454,0,0,0,0-7.25183,5.13679,5.13679,0,0,0-7.25173,0Z" style="fill:none;clip-rule:evenodd"/></clipPath><clipPath id="m"><path d="M-479.5246,52.48046a5.11816,5.11816,0,0,0,3.626-1.49906l10.87775-10.87614a5.135,5.135,0,0,0,0-7.25223,5.131,5.131,0,0,0-7.25173,0l-10.87765,10.87654a5.13454,5.13454,0,0,0,0,7.25183,5.09592,5.09592,0,0,0,3.626,1.49906Z" style="fill:none;clip-rule:evenodd"/></clipPath><clipPath id="n"><path d="M-439.97457,291.63666l-9.6989,8.89222a7.60364,7.60364,0,0,1-5.11215,2.05,5.79669,5.79669,0,0,1-4.26664-1.72847l-44.93245-49.66214,20.24372-18.22046,44.79142,49.508a5.46492,5.46492,0,0,1,1.4478,4.06073A7.43,7.43,0,0,1-439.97457,291.63666Zm-77.155-62.66394a102.46814,102.46814,0,0,0,12.15888-11.40425l10.63441,11.13559-12.38951,11.1452ZM-673.25,148.82984a92.35453,92.35453,0,0,1,92.24941-92.24941,92.35454,92.35454,0,0,1,92.24942,92.24941,92.35454,92.35454,0,0,1-92.24942,92.24941A92.35453,92.35453,0,0,1-673.25,148.82984Zm193.28915,73.0452a5.10173,5.10173,0,0,0-3.57447-1.67923,5.26765,5.26765,0,0,0-3.57456,1.24281l-11.33889-11.87671a101.99025,101.99025,0,0,0,19.94883-60.73207A102.503,102.503,0,0,0-580.99926,46.3305,102.503,102.503,0,0,0-683.4986,148.82984,102.503,102.503,0,0,0-580.99926,251.32919a101.9525,101.9525,0,0,0,55.46446-16.32462l11.18534,11.713-.89666.80678.064.06246a5.11923,5.11923,0,0,0,.15375,6.67807l48.43224,53.51628A15.92963,15.92963,0,0,0-454.783,312.8288a17.76329,17.76329,0,0,0,12.031-4.743l9.6989-8.88861A17.74289,17.74289,0,0,0-427.262,286.9333a15.686,15.686,0,0,0-4.15112-11.401Z" style="fill:none;clip-rule:evenodd"/></clipPath><clipPath id="o"><path d="M-581.00056,215.45282a66.703,66.703,0,0,1-66.623-66.623,66.70367,66.70367,0,0,1,66.623-66.623,66.70367,66.70367,0,0,1,66.623,66.623A66.70367,66.70367,0,0,1-581.00056,215.45282Zm0-143.49909a76.87157,76.87157,0,0,0-76.87611,76.87611A76.86945,76.86945,0,0,0-581.00056,225.706a76.86945,76.86945,0,0,0,76.87612-76.87611A76.86946,76.86946,0,0,0-581.00056,71.95373Z" style="fill:none;clip-rule:evenodd"/></clipPath><clipPath id="p"><path d="M-569.39531,153.18566l-16.10541-16.10481,29.89147-11.87671ZM-592.5986,144.474l16.10541,16.10481-29.90428,11.87671Zm45.57538-33.72148-48.40592,19.24385a5.1531,5.1531,0,0,0-2.70342,2.49922l-23.34423,47.37912a5.1305,5.1305,0,0,0,.83281,5.74,5.12009,5.12009,0,0,0,3.76665,1.6532,5.08838,5.08838,0,0,0,1.89624-.36075l48.40592-19.24385a5.14746,5.14746,0,0,0,2.70332-2.496l23.34422-47.37912a5.12882,5.12882,0,0,0-.83271-5.74,5.12634,5.12634,0,0,0-5.66328-1.29565Z" style="fill:none;clip-rule:evenodd"/></clipPath><clipPath id="q"><path d="M-134.34442,175.999h9.00633V202.9994h-9.00633Zm-18.01248-8.99921h9.00633v35.9996h-9.00633Zm-54.03919,35.9996a76.11116,76.11116,0,0,1-50.77365-19.39477l52.644-52.60581h74.52728a76.11515,76.11515,0,0,1-6.85549,27.50569,4.46307,4.46307,0,0,0-1.99289-.50669h-18.01249a4.50106,4.50106,0,0,0-4.50394,4.4996v25.78475A76.78738,76.78738,0,0,1-206.39609,202.998Zm-72.05167-63a13.10665,13.10665,0,0,0-3.19863.42711,77.83618,77.83618,0,0,1-1.30531-13.9273c0-1.5074.158-2.992.24761-4.49961h22.26881a4.49962,4.49962,0,0,0,4.50239-4.4996v-9.00059h13.51027a4.50029,4.50029,0,0,0,4.16493-2.77848,4.48,4.48,0,0,0-.97933-4.90534l-16.69587-16.683V68.25808a76.38944,76.38944,0,0,1,45.033-18.0554v74.43049l-52.64422,52.60564c-.46116-.51816-.94527-1.012-1.39653-1.55292V153.501a13.51553,13.51553,0,0,0-13.50871-13.5002Zm-58.54165-89.99882h72.05175v35.9996a4.497,4.497,0,0,0,1.31817,3.18282l10.32293,10.31581h-7.13733A4.50137,4.50137,0,0,0-264.93766,104v8.999h-72.05175Zm206.92548,71.999h-71.82821V50.22405A76.51521,76.51521,0,0,1-130.06393,121.99961Zm22.74128,63v17.9998H-116.329V184.9996Zm4.50255,26.999a4.50013,4.50013,0,0,0,4.50377-4.4996V180.49861a4.501,4.501,0,0,0-4.50377-4.4996H-116.329v-4.4996a4.5,4.5,0,0,0-4.50378-4.49961H-131.0775a85.015,85.015,0,0,0,10.24474-40.49919A85.62359,85.62359,0,0,0-206.39609,41a85.40051,85.40051,0,0,0-49.5368,15.86164V45.4996A4.50092,4.50092,0,0,0-260.43667,41h-81.05808a4.501,4.501,0,0,0-4.50386,4.4996V117.5a4.50094,4.50094,0,0,0,4.50386,4.4996h49.65783c-.07837,1.49611-.12389,3.0035-.12389,4.49961a85.16708,85.16708,0,0,0,2.286,19.50719,13.40488,13.40488,0,0,0-2.286,7.4932v14.33148a13.34813,13.34813,0,0,0-4.504-.83129,13.50185,13.50185,0,0,0-12.99194,9.99,13.29438,13.29438,0,0,0-5.02054-.9908,13.50244,13.50244,0,0,0-12.99211,9.98983,13.32892,13.32892,0,0,0-5.02046-.98924A13.51573,13.51573,0,0,0-346,198.4998v55.316a12.09433,12.09433,0,0,0,3.56866,8.61623l13.51019,13.50019a3.13844,3.13844,0,0,1,.93381,2.25059V320h9.00772V278.18281a12.09365,12.09365,0,0,0-3.57015-8.6178l-13.50871-13.50019a3.13829,3.13829,0,0,1-.93519-2.249v-55.316a4.50118,4.50118,0,0,1,4.50386-4.501,4.5,4.5,0,0,1,4.50247,4.501v26.999h9.00615V189.4992a4.50107,4.50107,0,0,1,4.504-4.4996,4.501,4.501,0,0,1,4.50377,4.4996v35.9996h9.00633V180.5a4.501,4.501,0,0,1,4.50238-4.501,4.50136,4.50136,0,0,1,4.504,4.501v44.9988h9.00632V153.49961A4.50014,4.50014,0,0,1-278.45071,149a4.49884,4.49884,0,0,1,4.50238,4.4996V225.4988a4.50025,4.50025,0,0,0,1.31817,3.18421l13.50871,13.5002a4.51569,4.51569,0,0,0,3.18717,1.31521h22.51643a4.50107,4.50107,0,0,1,4.50255,4.501,4.50065,4.50065,0,0,1-4.50255,4.4996h-14.82688a12.11729,12.11729,0,0,0-8.62475,3.5658L-270.37819,269.565a12.09368,12.09368,0,0,0-3.57014,8.6178V320h9.00772V278.18281a3.15763,3.15763,0,0,1,.9338-2.25059l13.51028-13.4988a3.158,3.158,0,0,1,2.2518-.93381h14.82688a13.51541,13.51541,0,0,0,13.50871-13.50019,13.51538,13.51538,0,0,0-13.50871-13.5h-20.64883L-264.942,223.63258V188.813a85.16726,85.16726,0,0,0,58.54157,23.18559,85.80643,85.80643,0,0,0,45.033-12.89237V207.499a4.49973,4.49973,0,0,0,4.50238,4.4996Z" style="fill:none;clip-rule:evenodd"/></clipPath><clipPath id="r"><rect x="-192.26531" y="103.63265" width="8.54082" height="8.54082" style="fill:none"/></clipPath><clipPath id="s"><rect x="-175.18367" y="103.63265" width="8.54082" height="8.54082" style="fill:none"/></clipPath><clipPath id="t"><rect x="-156.67857" y="103.63265" width="8.54082" height="8.54082" style="fill:none"/></clipPath><clipPath id="u"><rect x="-192.26531" y="86.55102" width="8.54082" height="8.54082" style="fill:none"/></clipPath><clipPath id="v"><rect x="-175.18367" y="86.55102" width="8.54082" height="8.54082" style="fill:none"/></clipPath><clipPath id="w"><rect x="-327.4949" y="59.5051" width="54.09184" height="8.54082" style="fill:none"/></clipPath><clipPath id="x"><rect x="-327.4949" y="78.0102" width="54.09184" height="8.54082" style="fill:none"/></clipPath><clipPath id="y"><rect x="-327.4949" y="95.09184" width="54.09184" height="8.54082" style="fill:none"/></clipPath><clipPath id="z"><path d="M-76.01623,76.79021h-9.01485a4.53073,4.53073,0,0,0-3.18855,1.30827l-10.3344,10.256V81.26427a4.489,4.489,0,0,0-4.50673-4.47406H-112.077V49.94794h36.06076ZM-71.50812,41h-45.0756a4.49012,4.49012,0,0,0-4.50812,4.47389V81.26427a4.49012,4.49012,0,0,0,4.50812,4.47389h9.01484V99.15877a4.4705,4.4705,0,0,0,2.78282,4.138,4.60208,4.60208,0,0,0,1.7253.33588,4.562,4.562,0,0,0,3.18856-1.30809l16.71151-16.5864h11.65257A4.49012,4.49012,0,0,0-67,81.26427V45.47389A4.48923,4.48923,0,0,0-71.50812,41Z" style="fill:none;clip-rule:evenodd"/></clipPath><clipPath id="aa"><rect x="-104.0102" y="59.5051" width="18.5051" height="8.54082" style="fill:none"/></clipPath><clipPath id="ab"><path d="M-167.33461,236.29576a4.60991,4.60991,0,0,0-7.15731,0l-26.83949,36.00238a4.51735,4.51735,0,0,0-.42555,4.71454,4.48156,4.48156,0,0,0,4.00421,2.48673h13.41905V320h8.94655V274.997a4.48433,4.48433,0,0,0-4.47267-4.4996h-8.94638l17.89293-23.99829,17.89294,23.99829h-8.94638a4.48433,4.48433,0,0,0-4.47267,4.4996V320h8.94655V279.49941h13.41905a4.47976,4.47976,0,0,0,4.0042-2.48673,4.51733,4.51733,0,0,0-.42554-4.71454Z" style="fill:none;clip-rule:evenodd"/></clipPath><clipPath id="ac"><path d="M-94.73767,236.29576a4.60991,4.60991,0,0,0-7.15731,0l-26.83949,36.00238a4.51735,4.51735,0,0,0-.42555,4.71454,4.48154,4.48154,0,0,0,4.00421,2.48673h13.419V320h8.94656V274.997a4.48433,4.48433,0,0,0-4.47267-4.4996h-8.94638l17.89293-23.99829,17.89294,23.99829h-8.94638a4.48433,4.48433,0,0,0-4.47267,4.4996V320h8.94655V279.49941h13.41905a4.47977,4.47977,0,0,0,4.0042-2.48673,4.51733,4.51733,0,0,0-.42554-4.71454Z" style="fill:none;clip-rule:evenodd"/></clipPath><clipPath id="ad"><path d="M159.91827,151.41582a5.21635,5.21635,0,0,0,5.18069-4.99567V129.76793a5.18412,5.18412,0,0,0-10.36138,0v16.65222A5.21635,5.21635,0,0,0,159.91827,151.41582Z" style="fill:none;clip-rule:evenodd"/></clipPath><clipPath id="ae"><rect x="-1491.24208" y="-3220.47418" width="2131.48446" height="4126.79074" style="fill:none"/></clipPath><clipPath id="af"><path d="M185.08163,151.41582a5.21635,5.21635,0,0,0,5.18069-4.99567V129.76793a5.18412,5.18412,0,0,0-10.36138,0v16.65222A5.21635,5.21635,0,0,0,185.08163,151.41582Z" style="fill:none;clip-rule:evenodd"/></clipPath><clipPath id="ah"><path d="M213.93211,153.02819a4.82182,4.82182,0,0,0-5.81563,4.10551c-.68083,4.10532-2.392,7.19477-4.45089,10.95241a35.61562,35.61562,0,0,1-30.80444,17.46514,36.25784,36.25784,0,0,1-25.6682-10.61819,5.08711,5.08711,0,1,0-7.19374,7.19478,46.224,46.224,0,0,0,72.57124-8.90662,39.35179,39.35179,0,0,0,5.81563-14.04177,6.00624,6.00624,0,0,0-4.45252-6.15153Z" style="fill:none;clip-rule:evenodd"/></clipPath><clipPath id="aj"><path d="M79.0773,97.991H265.9226V224.08314H79.0773ZM73.98243,234.30688h197.035a5.22958,5.22958,0,0,0,5.09631-5.11185V92.87917a5.22958,5.22958,0,0,0-5.09631-5.11185H73.98243a5.22958,5.22958,0,0,0-5.09631,5.11185V229.195A5.22958,5.22958,0,0,0,73.98243,234.30688Z" style="fill:none;clip-rule:evenodd"/></clipPath><clipPath id="al"><path d="M308.42064,261.10985c-1.353,1.70222-4.07361,4.42844-7.81693,4.42844H44.411a9.19028,9.19028,0,0,1-6.7955-2.72622,13.6294,13.6294,0,0,1-4.42-9.18922v-1.70222H150.76624a3.03519,3.03519,0,0,0-.34494,1.70222,5.227,5.227,0,0,0,5.09631,5.1067h33.9795a5.227,5.227,0,0,0,5.09631-5.1067,3.03519,3.03519,0,0,0-.34494-1.70222H311.819v1.70222a12.89821,12.89821,0,0,1-3.39694,7.487ZM62.07581,83.40072A1.60362,1.60362,0,0,1,63.775,81.69855H281.23828a1.60447,1.60447,0,0,1,1.69919,1.70217V240.00565a1.60449,1.60449,0,0,1-1.69919,1.70222H63.775a1.60364,1.60364,0,0,1-1.69919-1.70222ZM310.46622,241.70787H293.13153c0-.67822.34494-1.024.34494-1.70222V83.40072a12.05742,12.05742,0,0,0-11.89181-11.91557H63.77355a12.05842,12.05842,0,0,0-11.892,11.91557V240.00565a3.03527,3.03527,0,0,0,.34493,1.70222H34.54706c-3.39712,0-11.54706,0-11.54706,11.91557,0,5.45263,3.05218,11.91562,7.472,16.34406a18.83986,18.83986,0,0,0,13.24625,5.78491H300.25878c5.77425,0,11.54706-2.72622,15.96687-8.16521,3.39856-4.42862,5.77425-9.53527,5.77425-13.96376C322.01327,249.195,320.65884,241.70787,310.46622,241.70787Z" style="fill:none;clip-rule:evenodd"/></clipPath></defs><title>laptop</title><g style="clip-path:url(#ad)"><g style="clip-path:url(#ae)"><rect x="147.33659" y="117.37127" width="25.16336" height="41.44553"/></g></g><g style="clip-path:url(#af)"><g style="clip-path:url(#ae)"><rect x="172.49995" y="117.37127" width="25.16336" height="41.44553"/></g></g><g style="clip-path:url(#ah)"><g style="clip-path:url(#ae)"><rect x="131.05442" y="145.49503" width="94.73264" height="57.7277"/></g></g><g style="clip-path:url(#aj)"><g style="clip-path:url(#ae)"><rect x="61.48514" y="80.36634" width="222.02963" height="161.34153"/></g></g><g style="clip-path:url(#al)"><g style="clip-path:url(#ae)"><rect x="15.59901" y="64.08416" width="313.80188" height="219.06924"/></g></g></svg>