<svg xmlns="http://www.w3.org/2000/svg" xmlns:xlink="http://www.w3.org/1999/xlink" viewBox="0 0 350 350"><defs><clipPath id="a"><path d="M-293.44077,210.79622a4.84791,4.84791,0,0,0-4.85005,4.84854v24.2518a4.84792,4.84792,0,0,0,4.85005,4.84854,4.84792,4.84792,0,0,0,4.85006-4.84854v-24.2518a4.85351,4.85351,0,0,0-1.41845-3.4299A4.85539,4.85539,0,0,0-293.44077,210.79622Z" style="fill:none;clip-rule:evenodd"/></clipPath><clipPath id="b"><path d="M-80.04022,259.29678h-174.602V225.34487a38.80612,38.80612,0,0,0-38.80044-38.80044,38.80612,38.80612,0,0,0-38.80044,38.80044v33.95191h-19.40023v-130.953H-322.543a4.85373,4.85373,0,0,0,3.4316-1.41864,4.85118,4.85118,0,0,0,1.41845-3.4299V94.39489h189.15368v67.90078c0,.07161.03676.12125.03676.19248a5.04755,5.04755,0,0,0,.32718,1.63879v.07162l14.55017,33.9519a4.85234,4.85234,0,0,0,4.46205,2.93315,4.85254,4.85254,0,0,0,4.46205-2.93315l14.55017-33.9519v-.07162a5.048,5.048,0,0,0,.32738-1.63879c0-.07123.03637-.13337.03637-.19248V94.39489H-80.087Zm-184.30211,24.25179a29.10735,29.10735,0,0,1-29.10033,29.10033A29.10735,29.10735,0,0,1-322.543,283.54857V225.3479a29.10735,29.10735,0,0,1,29.10033-29.10033,29.10735,29.10735,0,0,1,29.10033,29.10033Zm-63.0492-182.29047v17.38858H-344.779Zm-6.86264-6.86321-17.38764,17.389v-17.389Zm215.41389-53.35212h19.40022v9.70011h-19.40022ZM-101.95,167.14421l-7.1902,16.78043-7.19021-16.78043Zm2.50991-9.70011h-19.40022V60.443h19.40022Zm24.25027-72.75235H-89.73995V36.1912a4.84693,4.84693,0,0,0-1.41864-3.4299A4.84351,4.84351,0,0,0-94.59,31.33962h-29.10033a4.85051,4.85051,0,0,0-4.85006,4.85158V84.69175H-356.49452a4.84779,4.84779,0,0,0-4.85,4.84854v174.602a4.85364,4.85364,0,0,0,1.41845,3.43293,4.85537,4.85537,0,0,0,3.4316,1.41864h24.25028v14.54865a38.80406,38.80406,0,0,0,38.80044,38.80044,38.80419,38.80419,0,0,0,38.80045-38.80044V268.99386H-75.193a4.85539,4.85539,0,0,0,3.43161-1.41864,4.85368,4.85368,0,0,0,1.41845-3.43293V89.54029a4.85124,4.85124,0,0,0-1.41845-3.4299A4.85379,4.85379,0,0,0-75.193,84.69175Z" style="fill:none;clip-rule:evenodd"/></clipPath><clipPath id="c"><path d="M-94.59,239.89352h-9.70011a4.84792,4.84792,0,0,0-4.85,4.84854,4.84856,4.84856,0,0,0,4.85,4.85157H-94.59a4.84856,4.84856,0,0,0,4.85006-4.85157A4.84792,4.84792,0,0,0-94.59,239.89352Z" style="fill:none;clip-rule:evenodd"/></clipPath><clipPath id="d"><path d="M-123.68731,239.89352h-9.70011a4.84792,4.84792,0,0,0-4.85006,4.84854,4.84856,4.84856,0,0,0,4.85006,4.85157h9.70011a4.84856,4.84856,0,0,0,4.85006-4.85157A4.84792,4.84792,0,0,0-123.68731,239.89352Z" style="fill:none;clip-rule:evenodd"/></clipPath><clipPath id="e"><path d="M-163.58034,120.42529a4.86263,4.86263,0,0,0-6.82645-.69227l-50.13632,41.0201-45.409-40.86171h.01213a4.87459,4.87459,0,0,0-6.01407-.388l-63.049,43.649a4.80609,4.80609,0,0,0-2.08571,3.12905,4.84807,4.84807,0,0,0,.76388,3.68756,4.86582,4.86582,0,0,0,3.17679,2.02376,4.90026,4.90026,0,0,0,3.67392-.85975l59.89856-41.46684,45.651,41.07884h-.01213a4.853,4.853,0,0,0,6.30507.155l53.35213-43.649a4.82671,4.82671,0,0,0,1.77027-3.27152,4.89713,4.89713,0,0,0-1.067-3.55418Z" style="fill:none;clip-rule:evenodd"/></clipPath><clipPath id="f"><path d="M-197.40872,220.49633l15.52018-24.79515,15.52017,24.79515Zm19.6306-36.52205a5.02288,5.02288,0,0,0-4.12255-2.145,5.03932,5.03932,0,0,0-4.12254,2.145l-24.25028,38.80044a4.86242,4.86242,0,0,0-.12125,4.93531,4.84483,4.84483,0,0,0,4.25592,2.48641h48.50055a4.871,4.871,0,0,0,4.2438-2.49853,4.8678,4.8678,0,0,0-.13318-4.92319Z" style="fill:none;clip-rule:evenodd"/></clipPath><clipPath id="g"><path d="M180.65649,75.39666a5.12264,5.12264,0,0,0,5.125-5.12337V54.89679a5.125,5.125,0,0,0-10.24993,0v15.3765A5.12264,5.12264,0,0,0,180.65649,75.39666Z" style="fill:none;clip-rule:evenodd"/></clipPath><clipPath id="h"><rect x="-803.33724" y="-2531.57013" width="4723.16991" height="9144.58174" style="fill:none"/></clipPath><clipPath id="i"><path d="M180.65649,286.54851a5.12332,5.12332,0,0,0-5.125,5.12657v15.3733a5.125,5.125,0,1,0,10.24993,0v-15.3733A5.12333,5.12333,0,0,0,180.65649,286.54851Z" style="fill:none;clip-rule:evenodd"/></clipPath><clipPath id="k"><path d="M339.53208,143.04943h-15.3749a5.125,5.125,0,1,0,0,10.24993h15.3749a5.125,5.125,0,1,0,0-10.24993Z" style="fill:none;clip-rule:evenodd"/></clipPath><clipPath id="m"><path d="M37.15741,143.04943H21.7825a5.125,5.125,0,0,0,0,10.24993H37.15741a5.125,5.125,0,0,0,0-10.24993Z" style="fill:none;clip-rule:evenodd"/></clipPath><clipPath id="o"><path d="M75.56924,50.32435a5.12789,5.12789,0,1,0,7.252-7.25182L71.94352,32.2092a5.12661,5.12661,0,0,0-7.25163,7.24862Z" style="fill:none;clip-rule:evenodd"/></clipPath><clipPath id="q"><path d="M75.56924,246.02123,64.69149,256.88456a5.12789,5.12789,0,0,0,7.252,7.25183l10.87775-10.86333a5.12778,5.12778,0,0,0-7.25173-7.25183Z" style="fill:none;clip-rule:evenodd"/></clipPath><clipPath id="s"><path d="M282.13245,51.82341a5.11816,5.11816,0,0,0,3.626-1.49906l10.87775-10.87614a5.12792,5.12792,0,1,0-7.25173-7.25223L278.50683,43.07253a5.125,5.125,0,0,0,3.626,8.75088Z" style="fill:none;clip-rule:evenodd"/></clipPath><clipPath id="u"><path d="M321.68248,290.97961l-9.6989,8.89222a7.60364,7.60364,0,0,1-5.11215,2.05,5.79669,5.79669,0,0,1-4.26664-1.72847L257.67234,250.5312l20.24372-18.22046,44.79141,49.508a5.46489,5.46489,0,0,1,1.44781,4.06073A7.43,7.43,0,0,1,321.68248,290.97961Zm-77.155-62.66394a102.46814,102.46814,0,0,0,12.15888-11.40425L267.32079,228.047l-12.38951,11.1452ZM88.40708,148.17279a92.24941,92.24941,0,1,1,92.24941,92.24942A92.35453,92.35453,0,0,1,88.40708,148.17279ZM281.69622,221.218a5.10173,5.10173,0,0,0-3.57446-1.67923,5.26765,5.26765,0,0,0-3.57456,1.24281l-11.33889-11.87671a102.56811,102.56811,0,1,0-27.08606,25.44266l11.18534,11.713-.89667.80678.064.06246a5.11925,5.11925,0,0,0,.15375,6.67808l48.43224,53.51627a15.92963,15.92963,0,0,0,11.81315,5.04769,17.76329,17.76329,0,0,0,12.031-4.743l9.6989-8.88861a17.74289,17.74289,0,0,0,5.79111-12.26389,15.68607,15.68607,0,0,0-4.15112-11.401Z" style="fill:none;clip-rule:evenodd"/></clipPath><clipPath id="w"><path d="M180.65649,214.79577a66.623,66.623,0,1,1,66.623-66.623A66.703,66.703,0,0,1,180.65649,214.79577Zm0-143.49909a76.87612,76.87612,0,1,0,76.87611,76.87611A76.87157,76.87157,0,0,0,180.65649,71.29668Z" style="fill:none;clip-rule:evenodd"/></clipPath><clipPath id="y"><path d="M192.26174,152.52862l-16.10541-16.10481,29.89147-11.87672ZM169.05845,143.817l16.10541,16.10481-29.90428,11.87671Zm45.57537-33.72148-48.40591,19.24385a5.1531,5.1531,0,0,0-2.70342,2.49922l-23.34423,47.37912a5.13119,5.13119,0,0,0,6.4957,7.03242l48.40591-19.24385a5.14739,5.14739,0,0,0,2.70332-2.496l23.34423-47.37912a5.13345,5.13345,0,0,0-6.496-7.03562Z" style="fill:none;clip-rule:evenodd"/></clipPath><clipPath id="aa"><path d="M-607.80924,297.27085a87.45373,87.45373,0,0,1-9.28769,0,87.41881,87.41881,0,0,1-59.16763-32.14269,88.00289,88.00289,0,0,1-18.93867-64.79764l14.88067,1.60583A72.77329,72.77329,0,0,0-661.17048,259.086a72.21434,72.21434,0,0,0,55.58491,22.90709,72.24923,72.24923,0,0,0,53.64593-27.17849,72.76611,72.76611,0,0,0,14.65585-58.48217,72.56792,72.56792,0,0,0-34.42988-49.40789,72.07228,72.07228,0,0,0-59.76628-6.24053l-4.79191-14.2368a87.14406,87.14406,0,0,1,73.56163,7.19517,87.69467,87.69467,0,0,1,41.75986,61.21492,87.91346,87.91346,0,0,1-19.91616,71.43895,87.24308,87.24308,0,0,1-67.33937,30.57752Z" style="fill:none;clip-rule:evenodd"/></clipPath><clipPath id="ab"><path d="M-607.84671,327.34295a119.13307,119.13307,0,0,1-83.29853-34.08531,115.16666,115.16666,0,0,1-34.53087-81.966,114.05615,114.05615,0,0,1,37.06529-84.44784l10.04764,10.76648a99.57491,99.57491,0,0,0-32.24733,73.6777,100.36258,100.36258,0,0,0,30.16213,71.58108,103.83148,103.83148,0,0,0,72.798,29.653,103.84014,103.84014,0,0,0,72.80167-29.653A100.374,100.374,0,0,0-504.89023,211.288a100.37317,100.37317,0,0,0-30.15847-71.58107,103.84655,103.84655,0,0,0-72.80167-29.65305,103.41833,103.41833,0,0,0-42.89042,9.183l-6.33011-13.43205a119.87511,119.87511,0,0,1,101.90772,1.6433,116.38816,116.38816,0,0,1,62.61556,79.076,114.63821,114.63821,0,0,1-23.3787,97.54675A118.79236,118.79236,0,0,1-607.854,327.3393Z" style="fill:none;clip-rule:evenodd"/></clipPath><clipPath id="ac"><polygon points="-583.423 84.01 -598.398 84.01 -598.398 55.835 -583.423 55.835 -583.423 50.71 -628.343 50.71 -628.343 55.835 -613.368 55.835 -613.368 84.01 -628.343 84.01 -628.343 71.203 -643.317 71.203 -643.317 35.343 -568.445 35.343 -568.445 71.203 -583.42 71.203 -583.423 84.01" style="fill:none;clip-rule:evenodd"/></clipPath><clipPath id="ad"><rect x="-508.28213" y="68.50344" width="14.44282" height="38.49953" transform="translate(-208.80818 -328.60112) rotate(-45)" style="fill:none"/></clipPath><clipPath id="ae"><polygon points="-527.266 100.227 -504.808 80.266 -493.574 90.254 -516.031 110.215 -527.266 100.227" style="fill:none;clip-rule:evenodd"/></clipPath><clipPath id="af"><polygon points="-669.526 177.599 -684.077 177.599 -684.077 136.094 -725.676 136.094 -725.676 121.446 -669.522 121.446 -669.526 177.599" style="fill:none;clip-rule:evenodd"/></clipPath><clipPath id="ag"><polygon points="-616.655 244.984 -650.804 212.336 -639.929 202.037 -616.655 224.29 -571.732 181.343 -560.958 191.641 -616.655 244.984" style="fill:none;clip-rule:evenodd"/></clipPath><clipPath id="ah"><path d="M627.31263,175.342H636.319v27.00039h-9.00633Zm-18.01248-8.99921h9.00632v35.9996h-9.00632ZM555.261,202.34235a76.11111,76.11111,0,0,1-50.77365-19.39477l52.644-52.60581h74.52727a76.11488,76.11488,0,0,1-6.85548,27.50569,4.46307,4.46307,0,0,0-1.99289-.50669H604.79776a4.50107,4.50107,0,0,0-4.50394,4.4996v25.78475A76.78738,76.78738,0,0,1,555.261,202.341Zm-72.05167-63a13.1068,13.1068,0,0,0-3.19864.42711,77.8371,77.8371,0,0,1-1.30531-13.9273c0-1.5074.158-2.992.24762-4.49961h22.26881a4.49963,4.49963,0,0,0,4.50239-4.4996v-9.00059h13.51027a4.499,4.499,0,0,0,3.1856-7.68382l-16.69587-16.683V67.601a76.38942,76.38942,0,0,1,45.033-18.0554v74.43049L498.113,176.58176c-.46117-.51816-.94527-1.012-1.39653-1.55292V152.844a13.51553,13.51553,0,0,0-13.50871-13.5002ZM424.66763,49.34355h72.05176V85.34314a4.497,4.497,0,0,0,1.31817,3.18282l10.32293,10.31581h-7.13733a4.50137,4.50137,0,0,0-4.50377,4.50117v8.999H424.66763Zm206.92549,71.999H559.76491V49.567A76.51521,76.51521,0,0,1,631.59312,121.34256Zm22.74127,63v17.9998h-9.00632v-17.9998Zm4.50256,26.999a4.50014,4.50014,0,0,0,4.50377-4.49961V179.84156a4.501,4.501,0,0,0-4.50377-4.4996H645.32807v-4.4996a4.5,4.5,0,0,0-4.50378-4.49961H630.57955A85.47488,85.47488,0,0,0,505.72416,56.20459v-11.362a4.50093,4.50093,0,0,0-4.50378-4.4996H420.1623a4.501,4.501,0,0,0-4.50386,4.4996V116.843a4.50093,4.50093,0,0,0,4.50386,4.4996h49.65783c-.07837,1.49611-.12389,3.0035-.12389,4.49961a85.16708,85.16708,0,0,0,2.286,19.50719,13.40488,13.40488,0,0,0-2.286,7.4932V167.174a13.34813,13.34813,0,0,0-4.50395-.83129,13.50184,13.50184,0,0,0-12.99194,9.99,13.29438,13.29438,0,0,0-5.02054-.9908,13.50247,13.50247,0,0,0-12.99212,9.98983,13.32883,13.32883,0,0,0-5.02045-.98924,13.51573,13.51573,0,0,0-13.51019,13.5002v55.316a12.09433,12.09433,0,0,0,3.56866,8.61623l13.51019,13.50019a3.13845,3.13845,0,0,1,.93381,2.25059v41.81719h9.00771V277.52576a12.09364,12.09364,0,0,0-3.57014-8.6178l-13.50871-13.50019a3.13829,3.13829,0,0,1-.93519-2.249v-55.316a4.50317,4.50317,0,0,1,9.00633,0v26.999h9.00615V188.84216a4.50386,4.50386,0,0,1,9.00772,0v35.99959h9.00633V179.843a4.50317,4.50317,0,0,1,9.00633,0v44.9988h9.00632V152.84256a4.50308,4.50308,0,0,1,9.00616,0v71.99919a4.50021,4.50021,0,0,0,1.31817,3.18421l13.50871,13.5002a4.5157,4.5157,0,0,0,3.18717,1.31522h22.51642a4.5003,4.5003,0,1,1,0,9.00059H513.41231a12.11728,12.11728,0,0,0-8.62474,3.5658L491.27886,268.908a12.09368,12.09368,0,0,0-3.57014,8.6178v41.81719h9.00772V277.52576a3.15765,3.15765,0,0,1,.9338-2.25059l13.51028-13.4988a3.158,3.158,0,0,1,2.25179-.93381h14.82688a13.50011,13.50011,0,1,0,0-27.00021H507.59037l-10.87532-10.86682V188.156a85.33,85.33,0,0,0,103.5746,10.29322V206.842a4.49974,4.49974,0,0,0,4.50238,4.49961Z" style="fill:none;clip-rule:evenodd"/></clipPath><clipPath id="ai"><rect x="569.39174" y="102.9756" width="8.54082" height="8.54082" style="fill:none"/></clipPath><clipPath id="aj"><rect x="586.47338" y="102.9756" width="8.54082" height="8.54082" style="fill:none"/></clipPath><clipPath id="ak"><rect x="604.97848" y="102.9756" width="8.54082" height="8.54082" style="fill:none"/></clipPath><clipPath id="al"><rect x="569.39174" y="85.89397" width="8.54082" height="8.54082" style="fill:none"/></clipPath><clipPath id="am"><rect x="586.47338" y="85.89397" width="8.54082" height="8.54082" style="fill:none"/></clipPath><clipPath id="an"><rect x="434.16215" y="58.84805" width="54.09184" height="8.54082" style="fill:none"/></clipPath><clipPath id="ao"><rect x="434.16215" y="77.35316" width="54.09184" height="8.54082" style="fill:none"/></clipPath><clipPath id="ap"><rect x="434.16215" y="94.43479" width="54.09184" height="8.54082" style="fill:none"/></clipPath><clipPath id="aq"><path d="M685.64082,76.13316H676.626a4.53073,4.53073,0,0,0-3.18855,1.30827L663.103,87.69746V80.60722a4.489,4.489,0,0,0-4.50672-4.47406h-9.01623V49.29089h36.06076ZM690.14893,40.343h-45.0756a4.49012,4.49012,0,0,0-4.50812,4.47389V80.60722a4.49012,4.49012,0,0,0,4.50812,4.47389h9.01484V98.50172a4.4705,4.4705,0,0,0,2.78282,4.138,4.55916,4.55916,0,0,0,4.91386-.97221l16.71151-16.5864h11.65257a4.49012,4.49012,0,0,0,4.50812-4.47389V44.81684A4.48923,4.48923,0,0,0,690.14893,40.343Z" style="fill:none;clip-rule:evenodd"/></clipPath><clipPath id="ar"><rect x="657.64684" y="58.84805" width="18.5051" height="8.54082" style="fill:none"/></clipPath><clipPath id="as"><path d="M594.32244,235.63871a4.60992,4.60992,0,0,0-7.15731,0l-26.83949,36.00238a4.5,4.5,0,0,0,3.57866,7.20127h13.419v40.50059h8.94656V274.34a4.48433,4.48433,0,0,0-4.47267-4.4996h-8.94638l17.89293-23.99828,17.89294,23.99828h-8.94638a4.48433,4.48433,0,0,0-4.47267,4.4996v45.003h8.94655V278.84236h13.419a4.5,4.5,0,0,0,3.57866-7.20127Z" style="fill:none;clip-rule:evenodd"/></clipPath><clipPath id="at"><path d="M666.91938,235.63871a4.60992,4.60992,0,0,0-7.15731,0l-26.83949,36.00238a4.5,4.5,0,0,0,3.57865,7.20127h13.41905v40.50059h8.94656V274.34a4.48433,4.48433,0,0,0-4.47267-4.4996h-8.94638l17.89293-23.99828,17.89294,23.99828h-8.94638a4.48433,4.48433,0,0,0-4.47267,4.4996v45.003h8.94655V278.84236h13.419a4.5,4.5,0,0,0,3.57866-7.20127Z" style="fill:none;clip-rule:evenodd"/></clipPath></defs><title>magnifier</title><g style="clip-path:url(#g)"><g style="clip-path:url(#h)"><rect x="159.13163" y="33.37352" width="43.04973" height="58.42303"/></g></g><g style="clip-path:url(#i)"><g style="clip-path:url(#h)"><rect x="159.13163" y="270.14862" width="43.04973" height="58.42623"/></g></g><g style="clip-path:url(#k)"><g style="clip-path:url(#h)"><rect x="302.63232" y="126.64953" width="58.42463" height="43.04973"/></g></g><g style="clip-path:url(#m)"><g style="clip-path:url(#h)"><rect x="0.25764" y="126.64953" width="58.42463" height="43.04973"/></g></g><g style="clip-path:url(#o)"><g style="clip-path:url(#h)"><rect x="46.79305" y="14.31025" width="53.92707" height="53.91305"/></g></g><g style="clip-path:url(#q)"><g style="clip-path:url(#h)"><rect x="46.79265" y="228.12228" width="53.92747" height="53.91305"/></g></g><g style="clip-path:url(#s)"><g style="clip-path:url(#h)"><rect x="260.60798" y="14.29704" width="53.92707" height="53.92627"/></g></g><g style="clip-path:url(#u)"><g style="clip-path:url(#h)"><rect x="61.75855" y="29.27355" width="289.04886" height="299.29809"/></g></g><g style="clip-path:url(#w)"><g style="clip-path:url(#h)"><rect x="87.38049" y="54.89679" width="186.55201" height="186.55201"/></g></g><g style="clip-path:url(#y)"><g style="clip-path:url(#h)"><rect x="123.25426" y="93.33484" width="114.80117" height="109.6759"/></g></g></svg>