<svg xmlns="http://www.w3.org/2000/svg" xmlns:xlink="http://www.w3.org/1999/xlink" viewBox="0 0 350 350"><defs><clipPath id="a"><path d="M91.90219,211.45327a4.84791,4.84791,0,0,0-4.85006,4.84854V240.5536a4.85006,4.85006,0,0,0,9.70011,0V216.30181a4.84323,4.84323,0,0,0-4.85-4.84854Z" style="fill:none;clip-rule:evenodd"/></clipPath><clipPath id="b"><rect x="-870.3847" y="-1060.61252" width="2148.21077" height="4159.17474" style="fill:none"/></clipPath><clipPath id="c"><path d="M305.30273,259.95383h-174.602V226.00192a38.80044,38.80044,0,1,0-77.60088,0v33.95191H33.69963v-130.953H62.8a4.84323,4.84323,0,0,0,4.85-4.84854V95.05194H256.80369v67.90078c0,.07161.03676.12125.03676.19248a5.0473,5.0473,0,0,0,.32719,1.63879v.07162l14.55016,33.9519a4.86052,4.86052,0,0,0,8.9241,0l14.55017-33.9519V164.784a5.048,5.048,0,0,0,.32738-1.63879c0-.07123.03637-.13337.03637-.19248V95.05194h9.70012ZM121.00062,284.20562a29.10033,29.10033,0,0,1-58.20066,0V226.005a29.10033,29.10033,0,0,1,58.20066,0ZM57.95142,101.91515v17.38858H40.564Zm-6.86264-6.86321-17.38764,17.389v-17.389ZM266.50267,41.69982h19.40022v9.70011H266.50267ZM283.393,167.80126l-7.1902,16.78043-7.19021-16.78043Zm2.50991-9.70011H266.50267V61.1h19.40022ZM310.15317,85.3488H295.603V36.84824a4.84873,4.84873,0,0,0-4.85006-4.85157H261.65261a4.8505,4.8505,0,0,0-4.85,4.85157V85.3488H28.84843a4.84779,4.84779,0,0,0-4.85,4.84854v174.602a4.84325,4.84325,0,0,0,4.85,4.85158H53.09871v14.54865a38.80045,38.80045,0,0,0,77.60089,0V269.65091H310.14994A4.84325,4.84325,0,0,0,315,264.79933V90.19734a4.84323,4.84323,0,0,0-4.85006-4.84854Z" style="fill:none;clip-rule:evenodd"/></clipPath><clipPath id="e"><path d="M290.75294,240.55057h-9.70011a4.85006,4.85006,0,0,0,0,9.70011h9.70011a4.85005,4.85005,0,1,0,0-9.70011Z" style="fill:none;clip-rule:evenodd"/></clipPath><clipPath id="g"><path d="M261.65564,240.55057h-9.70011a4.85005,4.85005,0,0,0,0,9.70011h9.70011a4.85006,4.85006,0,1,0,0-9.70011Z" style="fill:none;clip-rule:evenodd"/></clipPath><clipPath id="i"><path d="M221.76261,121.08234a4.86263,4.86263,0,0,0-6.82645-.69227l-50.13631,41.0201-45.409-40.86172h.01213a4.87459,4.87459,0,0,0-6.01407-.388l-63.049,43.649A4.87684,4.87684,0,0,0,49.018,170.626a4.85715,4.85715,0,0,0,6.85071,1.164l59.89856-41.46684,45.651,41.07883h-.01213a4.853,4.853,0,0,0,6.30507.155l53.35213-43.649a4.82674,4.82674,0,0,0,1.77027-3.27152,4.89712,4.89712,0,0,0-1.067-3.55418Z" style="fill:none;clip-rule:evenodd"/></clipPath><clipPath id="k"><path d="M187.93423,221.15338l15.52018-24.79515,15.52018,24.79515Zm19.6306-36.52205a5.03411,5.03411,0,0,0-8.24509,0l-24.25028,38.80044a4.85153,4.85153,0,0,0,4.13467,7.42172h48.50056a4.84722,4.84722,0,0,0,4.11061-7.42172Z" style="fill:none;clip-rule:evenodd"/></clipPath><clipPath id="m"><path d="M565.99944,76.0537a5.12263,5.12263,0,0,0,5.125-5.12336V55.55384a5.125,5.125,0,0,0-10.24993,0v15.3765A5.12263,5.12263,0,0,0,565.99944,76.0537Z" style="fill:none;clip-rule:evenodd"/></clipPath><clipPath id="n"><path d="M565.99944,287.20556a5.12332,5.12332,0,0,0-5.125,5.12657v15.3733a5.125,5.125,0,1,0,10.24993,0v-15.3733A5.12332,5.12332,0,0,0,565.99944,287.20556Z" style="fill:none;clip-rule:evenodd"/></clipPath><clipPath id="o"><path d="M724.875,143.70648h-15.3749a5.125,5.125,0,1,0,0,10.24993H724.875a5.125,5.125,0,1,0,0-10.24993Z" style="fill:none;clip-rule:evenodd"/></clipPath><clipPath id="p"><path d="M422.50036,143.70648h-15.3749a5.125,5.125,0,1,0,0,10.24993h15.3749a5.125,5.125,0,1,0,0-10.24993Z" style="fill:none;clip-rule:evenodd"/></clipPath><clipPath id="q"><path d="M460.91219,50.9814a5.12789,5.12789,0,0,0,7.252-7.25183L457.28647,32.86625a5.12661,5.12661,0,0,0-7.25162,7.24862Z" style="fill:none;clip-rule:evenodd"/></clipPath><clipPath id="r"><path d="M460.91219,246.67828l-10.87775,10.86333a5.12789,5.12789,0,0,0,7.252,7.25183l10.87775-10.86333a5.12778,5.12778,0,1,0-7.25173-7.25183Z" style="fill:none;clip-rule:evenodd"/></clipPath><clipPath id="s"><path d="M667.4754,52.48046a5.11816,5.11816,0,0,0,3.626-1.49906l10.87775-10.87614a5.12792,5.12792,0,0,0-7.25173-7.25223L663.84978,43.72957a5.125,5.125,0,0,0,3.626,8.75089Z" style="fill:none;clip-rule:evenodd"/></clipPath><clipPath id="t"><path d="M707.02543,291.63666l-9.6989,8.89222a7.60364,7.60364,0,0,1-5.11215,2.05,5.79669,5.79669,0,0,1-4.26664-1.72847l-44.93245-49.66214L663.259,232.96779l44.79142,49.508a5.46492,5.46492,0,0,1,1.4478,4.06073A7.43,7.43,0,0,1,707.02543,291.63666Zm-77.155-62.66394a102.46814,102.46814,0,0,0,12.15888-11.40425l10.63441,11.13559-12.38951,11.1452ZM473.75,148.82984a92.24942,92.24942,0,1,1,92.24941,92.24941A92.35453,92.35453,0,0,1,473.75,148.82984ZM667.03918,221.875a5.10173,5.10173,0,0,0-3.57447-1.67923,5.26765,5.26765,0,0,0-3.57456,1.24281l-11.33889-11.87671a102.56811,102.56811,0,1,0-27.08606,25.44266l11.18534,11.713-.89666.80678.064.06246a5.11923,5.11923,0,0,0,.15375,6.67807l48.43224,53.51628A15.92963,15.92963,0,0,0,692.217,312.8288a17.76329,17.76329,0,0,0,12.031-4.743l9.6989-8.88861A17.74289,17.74289,0,0,0,719.738,286.9333a15.686,15.686,0,0,0-4.15112-11.401Z" style="fill:none;clip-rule:evenodd"/></clipPath><clipPath id="u"><path d="M565.99944,215.45282a66.623,66.623,0,1,1,66.623-66.623A66.703,66.703,0,0,1,565.99944,215.45282Zm0-143.49909a76.87611,76.87611,0,1,0,76.87612,76.87611A76.87157,76.87157,0,0,0,565.99944,71.95373Z" style="fill:none;clip-rule:evenodd"/></clipPath><clipPath id="v"><path d="M577.60469,153.18566l-16.10541-16.10481,29.89147-11.87671ZM554.4014,144.474l16.10541,16.10481-29.90428,11.87671Zm45.57538-33.72148-48.40592,19.24385a5.1531,5.1531,0,0,0-2.70342,2.49922l-23.34423,47.37912a5.13119,5.13119,0,0,0,6.4957,7.03242l48.40592-19.24385a5.14746,5.14746,0,0,0,2.70332-2.496l23.34422-47.37912a5.13345,5.13345,0,0,0-6.496-7.03562Z" style="fill:none;clip-rule:evenodd"/></clipPath><clipPath id="w"><path d="M-222.46629,297.9279a87.45373,87.45373,0,0,1-9.28769,0,87.41881,87.41881,0,0,1-59.16763-32.14269,88.00289,88.00289,0,0,1-18.93867-64.79764l14.88067,1.60583A72.77329,72.77329,0,0,0-275.82753,259.743a72.21437,72.21437,0,0,0,55.58491,22.90709,72.24921,72.24921,0,0,0,53.64593-27.1785,72.76608,72.76608,0,0,0,14.65585-58.48216,72.5679,72.5679,0,0,0-34.42988-49.40789A72.07232,72.07232,0,0,0-246.137,141.341l-4.79191-14.23679a87.14406,87.14406,0,0,1,73.56163,7.19517,87.69463,87.69463,0,0,1,41.75986,61.21491,87.91347,87.91347,0,0,1-19.91616,71.439,87.24308,87.24308,0,0,1-67.33937,30.57752Z" style="fill:none;clip-rule:evenodd"/></clipPath><clipPath id="x"><path d="M-222.50376,328a119.13307,119.13307,0,0,1-83.29853-34.08531,115.16666,115.16666,0,0,1-34.53087-81.966,114.05618,114.05618,0,0,1,37.06529-84.44784l10.04764,10.76648a99.575,99.575,0,0,0-32.24733,73.6777,100.36258,100.36258,0,0,0,30.16213,71.58108,103.8315,103.8315,0,0,0,72.798,29.65305,103.84014,103.84014,0,0,0,72.80167-29.65305,100.374,100.374,0,0,0,30.15847-71.58108A100.37317,100.37317,0,0,0-149.70575,140.364a103.84653,103.84653,0,0,0-72.80167-29.65305,103.41832,103.41832,0,0,0-42.89042,9.183l-6.33011-13.432a119.87511,119.87511,0,0,1,101.90772,1.6433,116.38816,116.38816,0,0,1,62.61556,79.076,114.63821,114.63821,0,0,1-23.3787,97.54675,118.79235,118.79235,0,0,1-91.92771,43.26834Z" style="fill:none;clip-rule:evenodd"/></clipPath><clipPath id="y"><polygon points="-198.08 84.667 -213.055 84.667 -213.055 56.492 -198.08 56.492 -198.08 51.367 -243 51.367 -243 56.492 -228.025 56.492 -228.025 84.667 -243 84.667 -243 71.86 -257.974 71.86 -257.974 36 -183.102 36 -183.102 71.86 -198.077 71.86 -198.08 84.667" style="fill:none;clip-rule:evenodd"/></clipPath><clipPath id="z"><rect x="-122.93918" y="69.16049" width="14.44282" height="38.49953" transform="translate(-96.40844 -55.93006) rotate(-45)" style="fill:none"/></clipPath><clipPath id="aa"><polygon points="-141.923 100.884 -119.465 80.923 -108.231 90.911 -130.688 110.872 -141.923 100.884" style="fill:none;clip-rule:evenodd"/></clipPath><clipPath id="ab"><polygon points="-284.183 178.256 -298.734 178.256 -298.734 136.751 -340.333 136.751 -340.333 122.103 -284.179 122.103 -284.183 178.256" style="fill:none;clip-rule:evenodd"/></clipPath><clipPath id="ac"><polygon points="-231.313 245.641 -265.461 212.993 -254.586 202.694 -231.313 224.947 -186.389 182 -175.615 192.299 -231.313 245.641" style="fill:none;clip-rule:evenodd"/></clipPath><clipPath id="ad"><path d="M1012.65558,175.999h9.00633V202.9994h-9.00633ZM994.6431,166.9998h9.00633v35.9996H994.6431Zm-54.03919,35.9996a76.11116,76.11116,0,0,1-50.77365-19.39477l52.644-52.60581h74.52728a76.11515,76.11515,0,0,1-6.85549,27.50569,4.46307,4.46307,0,0,0-1.99289-.50669H990.14071a4.50106,4.50106,0,0,0-4.50394,4.4996v25.78475A76.78738,76.78738,0,0,1,940.60391,202.998Zm-72.05167-63a13.10665,13.10665,0,0,0-3.19863.42711,77.83618,77.83618,0,0,1-1.30531-13.9273c0-1.5074.15795-2.992.24761-4.49961h22.26881a4.49962,4.49962,0,0,0,4.50239-4.4996v-9.00059h13.51027a4.499,4.499,0,0,0,3.1856-7.68382l-16.69587-16.683V68.25808a76.38944,76.38944,0,0,1,45.033-18.0554v74.43049l-52.64422,52.60564c-.46116-.51816-.94527-1.012-1.39653-1.55292V153.501a13.51553,13.51553,0,0,0-13.50871-13.5002ZM810.01059,50.00059h72.05175v35.9996a4.497,4.497,0,0,0,1.31817,3.18282l10.32293,10.31581h-7.13733A4.50137,4.50137,0,0,0,882.06234,104v8.999H810.01059Zm206.92548,71.999H945.10786V50.22405A76.51521,76.51521,0,0,1,1016.93607,121.99961Zm22.74128,63v17.9998H1030.671V184.9996Zm4.50255,26.999a4.50013,4.50013,0,0,0,4.50377-4.4996V180.49861a4.501,4.501,0,0,0-4.50377-4.4996H1030.671v-4.4996a4.5,4.5,0,0,0-4.50378-4.49961H1015.9225A85.47488,85.47488,0,0,0,891.06711,56.86164V45.4996A4.50092,4.50092,0,0,0,886.56333,41H805.50525a4.501,4.501,0,0,0-4.50386,4.4996V117.5a4.50094,4.50094,0,0,0,4.50386,4.4996h49.65783c-.07837,1.49611-.12389,3.0035-.12389,4.49961a85.16708,85.16708,0,0,0,2.286,19.50719,13.40488,13.40488,0,0,0-2.286,7.4932v14.33148a13.34813,13.34813,0,0,0-4.50395-.83129,13.50185,13.50185,0,0,0-12.99194,9.99,13.29438,13.29438,0,0,0-5.02054-.9908,13.50244,13.50244,0,0,0-12.99211,9.98983,13.32892,13.32892,0,0,0-5.02046-.98924A13.51573,13.51573,0,0,0,801,198.4998v55.316a12.09433,12.09433,0,0,0,3.56866,8.61623l13.51019,13.50019a3.13844,3.13844,0,0,1,.93381,2.25059V320h9.00772V278.18281a12.09365,12.09365,0,0,0-3.57015-8.6178l-13.50871-13.50019a3.13829,3.13829,0,0,1-.93519-2.249v-55.316a4.50317,4.50317,0,0,1,9.00633,0v26.999h9.00615V189.4992a4.50386,4.50386,0,0,1,9.00772,0v35.9996h9.00633V180.5a4.50317,4.50317,0,0,1,9.00633,0v44.9988h9.00632V153.49961a4.50308,4.50308,0,0,1,9.00616,0V225.4988a4.50025,4.50025,0,0,0,1.31817,3.18421l13.50871,13.5002a4.51569,4.51569,0,0,0,3.18717,1.31521h22.51643a4.5003,4.5003,0,1,1,0,9.0006H898.75527a12.11729,12.11729,0,0,0-8.62475,3.5658L876.62181,269.565a12.09368,12.09368,0,0,0-3.57014,8.6178V320h9.00772V278.18281a3.15763,3.15763,0,0,1,.9338-2.25059l13.51028-13.4988a3.158,3.158,0,0,1,2.2518-.93381h14.82688a13.50011,13.50011,0,1,0,0-27.00022H892.93332L882.058,223.63258V188.813a85.33005,85.33005,0,0,0,103.5746,10.29322V207.499a4.49973,4.49973,0,0,0,4.50238,4.4996Z" style="fill:none;clip-rule:evenodd"/></clipPath><clipPath id="ae"><rect x="954.73469" y="103.63265" width="8.54082" height="8.54082" style="fill:none"/></clipPath><clipPath id="af"><rect x="971.81633" y="103.63265" width="8.54082" height="8.54082" style="fill:none"/></clipPath><clipPath id="ag"><rect x="990.32143" y="103.63265" width="8.54082" height="8.54082" style="fill:none"/></clipPath><clipPath id="ah"><rect x="954.73469" y="86.55102" width="8.54082" height="8.54082" style="fill:none"/></clipPath><clipPath id="ai"><rect x="971.81633" y="86.55102" width="8.54082" height="8.54082" style="fill:none"/></clipPath><clipPath id="aj"><rect x="819.5051" y="59.5051" width="54.09184" height="8.54082" style="fill:none"/></clipPath><clipPath id="ak"><rect x="819.5051" y="78.0102" width="54.09184" height="8.54082" style="fill:none"/></clipPath><clipPath id="al"><rect x="819.5051" y="95.09184" width="54.09184" height="8.54082" style="fill:none"/></clipPath><clipPath id="am"><path d="M1070.98377,76.79021h-9.01485a4.53073,4.53073,0,0,0-3.18855,1.30827l-10.3344,10.256V81.26427a4.489,4.489,0,0,0-4.50673-4.47406H1034.923V49.94794h36.06076ZM1075.49188,41h-45.0756a4.49012,4.49012,0,0,0-4.50812,4.47389V81.26427a4.49012,4.49012,0,0,0,4.50812,4.47389h9.01484V99.15877a4.4705,4.4705,0,0,0,2.78282,4.138,4.55916,4.55916,0,0,0,4.91386-.97221l16.71151-16.5864h11.65257A4.49012,4.49012,0,0,0,1080,81.26427V45.47389A4.48923,4.48923,0,0,0,1075.49188,41Z" style="fill:none;clip-rule:evenodd"/></clipPath><clipPath id="an"><rect x="1042.9898" y="59.5051" width="18.5051" height="8.54082" style="fill:none"/></clipPath><clipPath id="ao"><path d="M979.66539,236.29576a4.60991,4.60991,0,0,0-7.15731,0l-26.83949,36.00238a4.5,4.5,0,0,0,3.57866,7.20127h13.419V320h8.94655V274.997a4.48433,4.48433,0,0,0-4.47267-4.4996H958.1938l17.89293-23.99829,17.89294,23.99829h-8.94638a4.48433,4.48433,0,0,0-4.47267,4.4996V320h8.94655V279.49941h13.419a4.5,4.5,0,0,0,3.57866-7.20127Z" style="fill:none;clip-rule:evenodd"/></clipPath><clipPath id="ap"><path d="M1052.26233,236.29576a4.60991,4.60991,0,0,0-7.15731,0l-26.83949,36.00238a4.5,4.5,0,0,0,3.57866,7.20127h13.419V320h8.94656V274.997a4.48433,4.48433,0,0,0-4.47267-4.4996h-8.94638l17.89293-23.99829,17.89294,23.99829h-8.94638a4.48433,4.48433,0,0,0-4.47267,4.4996V320h8.94655V279.49941h13.419a4.5,4.5,0,0,0,3.57866-7.20127Z" style="fill:none;clip-rule:evenodd"/></clipPath></defs><title>pen</title><g style="clip-path:url(#a)"><g style="clip-path:url(#b)"><rect x="71.53195" y="195.93309" width="40.74047" height="64.98923"/></g></g><g style="clip-path:url(#c)"><g style="clip-path:url(#b)"><rect x="8.4782" y="16.4765" width="322.04198" height="322.04368"/></g></g><g style="clip-path:url(#e)"><g style="clip-path:url(#b)"><rect x="260.6826" y="225.0304" width="50.44058" height="40.74047"/></g></g><g style="clip-path:url(#g)"><g style="clip-path:url(#b)"><rect x="231.5853" y="225.0304" width="50.44058" height="40.74047"/></g></g><g style="clip-path:url(#i)"><g style="clip-path:url(#b)"><rect x="32.6419" y="103.78356" width="205.73405" height="84.45462"/></g></g><g style="clip-path:url(#k)"><g style="clip-path:url(#b)"><rect x="158.81438" y="166.96614" width="89.25769" height="79.40753"/></g></g></svg>