<svg xmlns="http://www.w3.org/2000/svg" viewBox="0 0 400 153"><title>thriftbear-orange</title><path d="M88.77276,103.85594l4.779-27.071a4.73625,4.73625,0,0,0-.2575-3.277,2.49968,2.49968,0,0,0-2.38722-1.237,7.0411,7.0411,0,0,0-2.94351.68273,20.974,20.974,0,0,0-3.11235,1.7866L82.03657,76.528l-5.20268,29.37188H65.57621l9.80737-55.33449.24414-1.04052-2.80124.10166-14.58637-.083-8.18649,52.781,7.506.85235-.6008,2.80951L43.144,105.81311l-13.38916.17326.1699-2.80951,7.42018-.85235,8.1863-52.781-9.12339.083L28.901,63.24727h-2.9013l2.39179-17.02543,24.04956.1695,24.99017-.1695,7.07951-1.19243,2.72788,2.21428-4.4348,25.1138-.76719,1.53143,14.3289-9.87314q10.91712,0,8.87137,10.81212l-4.6923,26.55785,7.24942-4.93544,1.27669,1.6173-12.45119,9.1932Z" style="fill:#f16746"/><path d="M111.52313,105.89985l.5964-3.40841,5.71589-32.26063-6.90958,2.29629-.76614-1.87065,16.54269-6.55683,2.56151,2.38281-2.04742,12.00626-1.36448,5.1058,12.02577-18.72926h7.07948L142.65219,76.445H135.063a6.38364,6.38364,0,0,0-1.49217,1.31995q-.98429,1.06549-2.04758,2.29629-1.06741,1.237-2.08946,2.38367c-.684.76582-1.19368,1.35044-1.53419,1.7458l-1.70689,1.95718-3.41191,19.752H111.52313Z" style="fill:#f16746"/><path d="M145.79586,72.52764l-.76719-1.87065,16.54357-6.55791,3.07121,2.72654-6.0557,34.56045L165.83714,96.45l1.28128,1.618-12.45227,9.19319-7.84667-3.40551,5.96915-33.62534Zm11.9415-25.6236,3.411-.59622,6.39637.59622v5.53144l-1.79081,4.42758-3.24111.76582-6.90958-.76582.25659-5.10667Z" style="fill:#f16746"/><path d="M240.337,45.02941l2.81459,2.21406-4.35249,24.7748L237.7799,74.145,251.508,64.01556a12.44722,12.44722,0,0,1,7.20822,4.972q2.68621,3.7779,2.68674,10.15257a24.89406,24.89406,0,0,1-1.10786,7.39221,26.78658,26.78658,0,0,1-3.15792,6.7097,25.47589,25.47589,0,0,1-5.03189,5.65006,27.54731,27.54731,0,0,1-6.65229,4.12228l-8.95438,4.07762a26.72419,26.72419,0,0,1-7.548-1.08518,23.89844,23.89844,0,0,1-6.86406-3.25577l9.29434-52.27237L223.62,52.35282l-.684-2.13022Zm-2.304,31.32884L234.0247,98.75013a14.11093,14.11093,0,0,0,3.87954,2.12679,12.38,12.38,0,0,0,4.39452.93532,11.17617,11.17617,0,0,0,3.41083-3.31813,18.91968,18.91968,0,0,0,2.17635-4.42758,28.97781,28.97781,0,0,0,1.1928-4.89508,31.61528,31.61528,0,0,0,.38168-4.81135q0-9.27441-4.60455-12.25885Z" style="fill:#f16746"/><path d="M283.81283,99.5984c.735-.33911,1.58888-.72374,2.55709-1.14669q1.44731-.63878,2.89867-1.40562c.96839-.50969,1.91885-1.02185,2.85946-1.53154q1.40537-.76841,2.51506-1.44759l1.27758,1.70093q-2.55481,1.70442-5.757,3.661-3.19593,1.95851-6.43843,3.74828l-6.822,4.001a15.95145,15.95145,0,0,1-5.24753-1.61816,15.46774,15.46774,0,0,1-4.432-3.36365,16.05686,16.05686,0,0,1-3.07032-4.9362,17.03821,17.03821,0,0,1-1.15252-6.4293,24.59326,24.59326,0,0,1,4.04945-13.70719q4.0501-6.209,12.41091-9.44944l9.80739-3.65811a10.70907,10.70907,0,0,1,6.10054,3.19039,9.28639,9.28639,0,0,1,2.34256,6.59891,20.481,20.481,0,0,1-.2531,3.27713,17.96036,17.96036,0,0,1-1.11049,3.70277l-21.57918,6.38475v.42563a15.11129,15.11129,0,0,0,3.02934,7.57622,13.80721,13.80721,0,0,0,6.01457,4.4265M281.7654,68.86556a14.33164,14.33164,0,0,0-5.24753,6.21418,21.98714,21.98714,0,0,0-1.91974,8.85419v.51323a3.47927,3.47927,0,0,0,.08779.67919l10.14717-3.82782a11.80826,11.80826,0,0,0,.725-2.93791q.13031-1.32006.12873-2.76765a8.19789,8.19789,0,0,0-1.15235-4.46859,4.78135,4.78135,0,0,0-2.769-2.25882" style="fill:#f16746"/><path d="M331.84336,101.47292l7.33345-4.9362,1.28045,1.61795L328.089,107.26135l-7.92966-3.23516,1.1935-6.64088.8539-2.12668L308.64417,107.1774a15.82353,15.82353,0,0,1-7.03834-5.27885q-2.68514-3.57422-2.686-10.04554a22.26474,22.26474,0,0,1,4.69227-14.04641,34.90073,34.90073,0,0,1,12.539-9.87594l8.09965-3.91445a27.12374,27.12374,0,0,1,6.653.93532,34.621,34.621,0,0,1,6.90872,2.55242Zm-21.0686-14.72915q0,7.66386,4.095,11.66339l7.24939-5.61883,3.66852-20.93978a16.41406,16.41406,0,0,0-3.92514-1.66261,15.07873,15.07873,0,0,0-4.17729-.63808,18.7039,18.7039,0,0,0-5.16066,7.576,26.81922,26.81922,0,0,0-1.74984,9.61991" style="fill:#f16746"/><path d="M342.566,105.89985l6.05412-35.05415-6.65119,1.6814-.76631-1.87065,16.54355-6.55683,2.56063,2.38281-2.0474,12.00626-1.3645,5.1058L368.9207,64.86523h7.07946l-2.305,11.57976h-7.5899a6.43276,6.43276,0,0,0-1.49236,1.31995q-.983,1.06549-2.0474,2.29629-1.06773,1.237-2.08878,2.38367c-.68311.76582-1.19436,1.35044-1.53417,1.7458l-1.7078,1.95718-3.411,19.752Z" style="fill:#f16746"/><path d="M219.14494,69.80432l.59729-3.23516h-9.12777l2.2173-12.51487h-2.55711l-10.064,8.17489-.85387,4.34H186.7346l1.0238-6.13119a37.2247,37.2247,0,0,1,1.06581-3.87227,7.10313,7.10313,0,0,1,1.832-3.0211h6.18989l4.32839.07225,7.591-6.65689.33082-1.95975-3.64705.02931H195.34846l-10.57455,6.38475a19.02193,19.02193,0,0,0-5.62833,5.27885,19.24688,19.24688,0,0,0-3.242,7.32363l-.3433,2.29628H170.5282l-2.04391,1.78767-.3433,1.617h6.822l-6.73618,38.73555a40.86531,40.86531,0,0,1-1.065,4.17305,10.18631,10.18631,0,0,1-1.74879,3.40573h-9.981l-.65973,3.61979-1.13108,6.2525h5.54513l10.57458-7.40553a33.11283,33.11283,0,0,0,6.7397-5.95815,14.97189,14.97189,0,0,0,3.411-7.15036l6.2258-35.67258h12.622l-6.0557,34.30818,8.01728,3.23505,15.52258-8.93707-.9371-1.70469-10.831,4.94071,5.62918-31.75555Z" style="fill:#f16746"/></svg>