<svg xmlns="http://www.w3.org/2000/svg" xmlns:xlink="http://www.w3.org/1999/xlink" viewBox="0 0 350 350"><defs><clipPath id="a"><path d="M471.90219,211.45327a4.84791,4.84791,0,0,0-4.85006,4.84854V240.5536a4.85006,4.85006,0,0,0,9.70011,0V216.30181a4.84323,4.84323,0,0,0-4.85-4.84854Z" style="fill:none;clip-rule:evenodd"/></clipPath><clipPath id="b"><path d="M685.30273,259.95383h-174.602V226.00192a38.80044,38.80044,0,0,0-77.60088,0v33.95191H413.69963v-130.953H442.8a4.84323,4.84323,0,0,0,4.85005-4.84854V95.05194H636.80369v67.90078c0,.07161.03676.12125.03676.19248a5.0473,5.0473,0,0,0,.32719,1.63879v.07162l14.55016,33.9519a4.86052,4.86052,0,0,0,8.9241,0l14.55017-33.9519V164.784a5.048,5.048,0,0,0,.32738-1.63879c0-.07123.03637-.13337.03637-.19248V95.05194h9.70012ZM501.00062,284.20562a29.10033,29.10033,0,0,1-58.20066,0V226.005a29.10033,29.10033,0,0,1,58.20066,0Zm-63.0492-182.29047v17.38858H420.564Zm-6.86264-6.86321-17.38764,17.389v-17.389ZM646.50267,41.69982h19.40022v9.70011H646.50267ZM663.393,167.80126l-7.1902,16.78043-7.19021-16.78043Zm2.50991-9.70011H646.50267V61.1h19.40022ZM690.15317,85.3488H675.603V36.84824a4.84873,4.84873,0,0,0-4.85006-4.85157H641.65261a4.8505,4.8505,0,0,0-4.85005,4.85157V85.3488H408.84843a4.84779,4.84779,0,0,0-4.85005,4.84854v174.602a4.84325,4.84325,0,0,0,4.85005,4.85158h24.25028v14.54865a38.80045,38.80045,0,0,0,77.60089,0V269.65091H690.14994A4.84325,4.84325,0,0,0,695,264.79933V90.19734a4.84323,4.84323,0,0,0-4.85006-4.84854Z" style="fill:none;clip-rule:evenodd"/></clipPath><clipPath id="c"><path d="M670.75294,240.55057h-9.70011a4.85006,4.85006,0,0,0,0,9.70011h9.70011a4.85005,4.85005,0,1,0,0-9.70011Z" style="fill:none;clip-rule:evenodd"/></clipPath><clipPath id="d"><path d="M641.65564,240.55057h-9.70011a4.85006,4.85006,0,0,0,0,9.70011h9.70011a4.85006,4.85006,0,1,0,0-9.70011Z" style="fill:none;clip-rule:evenodd"/></clipPath><clipPath id="e"><path d="M601.76261,121.08234a4.86263,4.86263,0,0,0-6.82645-.69227l-50.13631,41.0201-45.409-40.86172h.01213a4.87459,4.87459,0,0,0-6.01407-.388l-63.049,43.649A4.87684,4.87684,0,0,0,429.018,170.626a4.85715,4.85715,0,0,0,6.85071,1.164l59.89856-41.46684,45.651,41.07883h-.01213a4.853,4.853,0,0,0,6.30507.155l53.35213-43.649a4.82674,4.82674,0,0,0,1.77027-3.27152,4.89712,4.89712,0,0,0-1.067-3.55418Z" style="fill:none;clip-rule:evenodd"/></clipPath><clipPath id="f"><path d="M567.93423,221.15338l15.52018-24.79515,15.52018,24.79515Zm19.6306-36.52205a5.03411,5.03411,0,0,0-8.24509,0l-24.25028,38.80044a4.85153,4.85153,0,0,0,4.13467,7.42172h48.50056a4.84722,4.84722,0,0,0,4.11061-7.42172Z" style="fill:none;clip-rule:evenodd"/></clipPath><clipPath id="g"><path d="M945.99944,76.0537a5.12263,5.12263,0,0,0,5.125-5.12336V55.55384a5.125,5.125,0,0,0-10.24993,0v15.3765A5.12263,5.12263,0,0,0,945.99944,76.0537Z" style="fill:none;clip-rule:evenodd"/></clipPath><clipPath id="h"><path d="M945.99944,287.20556a5.12332,5.12332,0,0,0-5.125,5.12657v15.3733a5.125,5.125,0,1,0,10.24993,0v-15.3733A5.12332,5.12332,0,0,0,945.99944,287.20556Z" style="fill:none;clip-rule:evenodd"/></clipPath><clipPath id="i"><path d="M1104.875,143.70648h-15.3749a5.125,5.125,0,1,0,0,10.24993h15.3749a5.125,5.125,0,1,0,0-10.24993Z" style="fill:none;clip-rule:evenodd"/></clipPath><clipPath id="j"><path d="M802.50036,143.70648h-15.3749a5.125,5.125,0,1,0,0,10.24993h15.3749a5.125,5.125,0,1,0,0-10.24993Z" style="fill:none;clip-rule:evenodd"/></clipPath><clipPath id="k"><path d="M840.91219,50.9814a5.12789,5.12789,0,1,0,7.252-7.25183L837.28647,32.86625a5.12661,5.12661,0,0,0-7.25162,7.24862Z" style="fill:none;clip-rule:evenodd"/></clipPath><clipPath id="l"><path d="M840.91219,246.67828l-10.87775,10.86333a5.12789,5.12789,0,0,0,7.252,7.25183l10.87775-10.86333a5.12778,5.12778,0,1,0-7.25173-7.25183Z" style="fill:none;clip-rule:evenodd"/></clipPath><clipPath id="m"><path d="M1047.4754,52.48046a5.11816,5.11816,0,0,0,3.626-1.49906l10.87775-10.87614a5.12792,5.12792,0,0,0-7.25173-7.25223l-10.87765,10.87654a5.125,5.125,0,0,0,3.626,8.75089Z" style="fill:none;clip-rule:evenodd"/></clipPath><clipPath id="n"><path d="M1087.02543,291.63666l-9.6989,8.89222a7.60364,7.60364,0,0,1-5.11215,2.05,5.79669,5.79669,0,0,1-4.26664-1.72847l-44.93245-49.66214,20.24372-18.22046,44.79142,49.508a5.46492,5.46492,0,0,1,1.4478,4.06073A7.43,7.43,0,0,1,1087.02543,291.63666Zm-77.155-62.66394a102.46814,102.46814,0,0,0,12.15888-11.40425l10.63441,11.13559-12.38951,11.1452ZM853.75,148.82984a92.24942,92.24942,0,1,1,92.24941,92.24941A92.35453,92.35453,0,0,1,853.75,148.82984Zm193.28915,73.0452a5.10173,5.10173,0,0,0-3.57447-1.67923,5.26765,5.26765,0,0,0-3.57456,1.24281l-11.33889-11.87671a102.56811,102.56811,0,1,0-27.08606,25.44266l11.18534,11.713-.89666.80678.064.06246a5.11923,5.11923,0,0,0,.15375,6.67807l48.43224,53.51628a15.92963,15.92963,0,0,0,11.81315,5.04769,17.76329,17.76329,0,0,0,12.031-4.743l9.6989-8.88861a17.74289,17.74289,0,0,0,5.79111-12.26389,15.686,15.686,0,0,0-4.15112-11.401Z" style="fill:none;clip-rule:evenodd"/></clipPath><clipPath id="o"><path d="M945.99944,215.45282a66.623,66.623,0,1,1,66.623-66.623A66.703,66.703,0,0,1,945.99944,215.45282Zm0-143.49909a76.87611,76.87611,0,1,0,76.87612,76.87611A76.87157,76.87157,0,0,0,945.99944,71.95373Z" style="fill:none;clip-rule:evenodd"/></clipPath><clipPath id="p"><path d="M957.60469,153.18566l-16.10541-16.10481,29.89147-11.87671ZM934.4014,144.474l16.10541,16.10481-29.90428,11.87671Zm45.57538-33.72148-48.40592,19.24385a5.1531,5.1531,0,0,0-2.70342,2.49922l-23.34423,47.37912a5.13119,5.13119,0,0,0,6.4957,7.03242l48.40592-19.24385a5.14746,5.14746,0,0,0,2.70332-2.496l23.34422-47.37912a5.13345,5.13345,0,0,0-6.496-7.03562Z" style="fill:none;clip-rule:evenodd"/></clipPath><clipPath id="q"><path d="M157.53371,297.9279a87.45373,87.45373,0,0,1-9.28769,0,87.7307,87.7307,0,0,1-78.1063-96.94033l14.88067,1.60583A72.26349,72.26349,0,1,0,133.863,141.341l-4.79191-14.23679a87.66111,87.66111,0,1,1,28.066,170.42656Z" style="fill:none;clip-rule:evenodd"/></clipPath><clipPath id="r"><rect x="-4007.15367" y="-2977.58974" width="5390.76923" height="10437.12821" style="fill:none"/></clipPath><clipPath id="s"><path d="M157.49624,328a119.13307,119.13307,0,0,1-83.29853-34.08531,114.64216,114.64216,0,0,1,2.53442-166.41381l10.04764,10.76648a100.15834,100.15834,0,0,0-2.0852,145.25878,104.1903,104.1903,0,0,0,145.59968,0,100.028,100.028,0,0,0,0-143.16215,104.38745,104.38745,0,0,0-115.69209-20.47l-6.33011-13.432a119.87511,119.87511,0,0,1,101.90772,1.6433,116.38816,116.38816,0,0,1,62.61556,79.076,114.63821,114.63821,0,0,1-23.3787,97.54675,118.79235,118.79235,0,0,1-91.92771,43.26834Z" style="fill:none;clip-rule:evenodd"/></clipPath><clipPath id="u"><polygon points="181.92 84.667 166.945 84.667 166.945 56.492 181.92 56.492 181.92 51.367 137 51.367 137 56.492 151.975 56.492 151.975 84.667 137 84.667 137 71.86 122.026 71.86 122.026 36 196.898 36 196.898 71.86 181.923 71.86 181.92 84.667" style="fill:none;clip-rule:evenodd"/></clipPath><clipPath id="w"><rect x="257.06082" y="69.16049" width="14.44282" height="38.49953" transform="translate(14.89098 212.77052) rotate(-45)" style="fill:none"/></clipPath><clipPath id="y"><polygon points="238.077 100.884 260.535 80.923 271.769 90.911 249.312 110.872 238.077 100.884" style="fill:none;clip-rule:evenodd"/></clipPath><clipPath id="aa"><polygon points="95.817 178.256 81.266 178.256 81.266 136.751 39.667 136.751 39.667 122.103 95.821 122.103 95.817 178.256" style="fill:none;clip-rule:evenodd"/></clipPath><clipPath id="ac"><polygon points="148.687 245.641 114.539 212.993 125.414 202.694 148.687 224.947 193.611 182 204.385 192.299 148.687 245.641" style="fill:none;clip-rule:evenodd"/></clipPath><clipPath id="ae"><path d="M1392.65558,175.999h9.00633V202.9994h-9.00633Zm-18.01248-8.99921h9.00633v35.9996h-9.00633Zm-54.03919,35.9996a76.11116,76.11116,0,0,1-50.77365-19.39477l52.644-52.60581h74.52728a76.11515,76.11515,0,0,1-6.85549,27.50569,4.46307,4.46307,0,0,0-1.99289-.50669h-18.01249a4.50106,4.50106,0,0,0-4.50394,4.4996v25.78475a76.78738,76.78738,0,0,1-45.03286,14.71584Zm-72.05167-63a13.10665,13.10665,0,0,0-3.19863.42711,77.83618,77.83618,0,0,1-1.30531-13.9273c0-1.5074.158-2.992.24761-4.49961h22.26881a4.49962,4.49962,0,0,0,4.50239-4.4996v-9.00059h13.51027a4.499,4.499,0,0,0,3.1856-7.68382l-16.69587-16.683V68.25808a76.38944,76.38944,0,0,1,45.033-18.0554v74.43049l-52.64422,52.60564c-.46116-.51816-.94527-1.012-1.39653-1.55292V153.501a13.51553,13.51553,0,0,0-13.50871-13.5002Zm-58.54165-89.99882h72.05175v35.9996a4.497,4.497,0,0,0,1.31817,3.18282l10.32293,10.31581h-7.13733A4.50137,4.50137,0,0,0,1262.06234,104v8.999h-72.05175Zm206.92548,71.999h-71.82821V50.22405A76.51521,76.51521,0,0,1,1396.93607,121.99961Zm22.74128,63v17.9998H1410.671V184.9996Zm4.50255,26.999a4.50013,4.50013,0,0,0,4.50377-4.4996V180.49861a4.501,4.501,0,0,0-4.50377-4.4996H1410.671v-4.4996a4.5,4.5,0,0,0-4.50378-4.49961H1395.9225A85.47488,85.47488,0,0,0,1271.06711,56.86164V45.4996A4.50092,4.50092,0,0,0,1266.56333,41h-81.05808a4.501,4.501,0,0,0-4.50386,4.4996V117.5a4.50094,4.50094,0,0,0,4.50386,4.4996h49.65783c-.07837,1.49611-.12389,3.0035-.12389,4.49961a85.16708,85.16708,0,0,0,2.286,19.50719,13.40488,13.40488,0,0,0-2.286,7.4932v14.33148a13.34813,13.34813,0,0,0-4.504-.83129,13.50185,13.50185,0,0,0-12.99194,9.99,13.29438,13.29438,0,0,0-5.02054-.9908,13.50244,13.50244,0,0,0-12.99211,9.98983,13.32892,13.32892,0,0,0-5.02046-.98924A13.51573,13.51573,0,0,0,1181,198.4998v55.316a12.09433,12.09433,0,0,0,3.56866,8.61623l13.51019,13.50019a3.13844,3.13844,0,0,1,.93381,2.25059V320h9.00772V278.18281a12.09365,12.09365,0,0,0-3.57015-8.6178l-13.50871-13.50019a3.13829,3.13829,0,0,1-.93519-2.249v-55.316a4.50317,4.50317,0,0,1,9.00633,0v26.999h9.00615V189.4992a4.50386,4.50386,0,0,1,9.00772,0v35.9996h9.00633V180.5a4.50317,4.50317,0,0,1,9.00633,0v44.9988h9.00632V153.49961a4.50308,4.50308,0,0,1,9.00616,0V225.4988a4.50025,4.50025,0,0,0,1.31817,3.18421l13.50871,13.5002a4.51569,4.51569,0,0,0,3.18717,1.31521h22.51643a4.5003,4.5003,0,1,1,0,9.0006h-14.82688a12.11729,12.11729,0,0,0-8.62475,3.5658L1256.62181,269.565a12.09368,12.09368,0,0,0-3.57014,8.6178V320h9.00772V278.18281a3.15763,3.15763,0,0,1,.9338-2.25059l13.51028-13.4988a3.158,3.158,0,0,1,2.2518-.93381h14.82688a13.50011,13.50011,0,1,0,0-27.00022h-20.64883L1262.058,223.63258V188.813a85.33005,85.33005,0,0,0,103.5746,10.29322V207.499a4.49973,4.49973,0,0,0,4.50238,4.4996Z" style="fill:none;clip-rule:evenodd"/></clipPath><clipPath id="af"><rect x="1334.73469" y="103.63265" width="8.54082" height="8.54082" style="fill:none"/></clipPath><clipPath id="ag"><rect x="1351.81633" y="103.63265" width="8.54082" height="8.54082" style="fill:none"/></clipPath><clipPath id="ah"><rect x="1370.32143" y="103.63265" width="8.54082" height="8.54082" style="fill:none"/></clipPath><clipPath id="ai"><rect x="1334.73469" y="86.55102" width="8.54082" height="8.54082" style="fill:none"/></clipPath><clipPath id="aj"><rect x="1351.81633" y="86.55102" width="8.54082" height="8.54082" style="fill:none"/></clipPath><clipPath id="ak"><rect x="1199.5051" y="59.5051" width="54.09184" height="8.54082" style="fill:none"/></clipPath><clipPath id="al"><rect x="1199.5051" y="78.0102" width="54.09184" height="8.54082" style="fill:none"/></clipPath><clipPath id="am"><rect x="1199.5051" y="95.09184" width="54.09184" height="8.54082" style="fill:none"/></clipPath><clipPath id="an"><path d="M1450.98377,76.79021h-9.01485a4.53073,4.53073,0,0,0-3.18855,1.30827l-10.3344,10.256V81.26427a4.489,4.489,0,0,0-4.50673-4.47406H1414.923V49.94794h36.06076ZM1455.49188,41h-45.0756a4.49012,4.49012,0,0,0-4.50812,4.47389V81.26427a4.49012,4.49012,0,0,0,4.50812,4.47389h9.01484V99.15877a4.4705,4.4705,0,0,0,2.78282,4.138,4.55916,4.55916,0,0,0,4.91386-.97221l16.71151-16.5864h11.65257A4.49012,4.49012,0,0,0,1460,81.26427V45.47389A4.48923,4.48923,0,0,0,1455.49188,41Z" style="fill:none;clip-rule:evenodd"/></clipPath><clipPath id="ao"><rect x="1422.9898" y="59.5051" width="18.5051" height="8.54082" style="fill:none"/></clipPath><clipPath id="ap"><path d="M1359.66539,236.29576a4.60991,4.60991,0,0,0-7.15731,0l-26.83949,36.00238a4.5,4.5,0,0,0,3.57866,7.20127h13.41905V320h8.94655V274.997a4.48433,4.48433,0,0,0-4.47267-4.4996h-8.94638l17.89293-23.99829,17.89294,23.99829h-8.94638a4.48433,4.48433,0,0,0-4.47267,4.4996V320h8.94655V279.49941h13.419a4.5,4.5,0,0,0,3.57866-7.20127Z" style="fill:none;clip-rule:evenodd"/></clipPath><clipPath id="aq"><path d="M1432.26233,236.29576a4.60991,4.60991,0,0,0-7.15731,0l-26.83949,36.00238a4.5,4.5,0,0,0,3.57866,7.20127h13.419V320h8.94656V274.997a4.48433,4.48433,0,0,0-4.47267-4.4996h-8.94638l17.89293-23.99829,17.89294,23.99829h-8.94638a4.48433,4.48433,0,0,0-4.47267,4.4996V320h8.94655V279.49941h13.419a4.5,4.5,0,0,0,3.57866-7.20127Z" style="fill:none;clip-rule:evenodd"/></clipPath></defs><title>timer</title><g style="clip-path:url(#q)"><g style="clip-path:url(#r)"><rect x="50.89761" y="103.38462" width="213.38462" height="213.38462"/></g></g><g style="clip-path:url(#s)"><g style="clip-path:url(#r)"><rect x="20.94889" y="77.17949" width="273.28205" height="269.53846"/></g></g><g style="clip-path:url(#u)"><g style="clip-path:url(#r)"><rect x="103.30787" y="17.28205" width="112.30769" height="86.10256"/></g></g><g style="clip-path:url(#w)"><g style="clip-path:url(#r)"><rect x="226.84633" y="50.97436" width="74.87179" height="74.87179"/></g></g><g style="clip-path:url(#y)"><g style="clip-path:url(#r)"><rect x="219.35915" y="62.20513" width="71.12821" height="67.38462"/></g></g><g style="clip-path:url(#aa)"><g style="clip-path:url(#r)"><rect x="20.94889" y="103.38462" width="93.58974" height="93.58974"/></g></g><g style="clip-path:url(#ac)"><g style="clip-path:url(#r)"><rect x="95.82069" y="163.28205" width="127.28205" height="101.07692"/></g></g></svg>